<svg width="19" height="19" viewBox="0 0 19 19" fill="none" xmlns="http://www.w3.org/2000/svg">
<g clip-path="url(#clip0_494_23676)">
<path d="M18.668 17.375C18.668 17.9963 18.1643 18.5 17.543 18.5H1.79297C1.17165 18.5 0.667969 17.9963 0.667969 17.375C0.667969 16.7537 1.17165 16.25 1.79297 16.25H17.543C18.1643 16.25 18.668 16.7537 18.668 17.375ZM8.87249 13.8111C9.09218 14.0308 9.38004 14.1407 9.66797 14.1407C9.95583 14.1407 10.2438 14.0308 10.4634 13.8111L14.4494 9.82523C14.8887 9.38588 14.8887 8.67358 14.4494 8.23423C14.01 7.79489 13.2977 7.79489 12.8584 8.23423L10.793 10.2997V1.625C10.793 1.00368 10.2893 0.5 9.66797 0.5C9.04665 0.5 8.54297 1.00368 8.54297 1.625V10.2997L6.47754 8.23423C6.03819 7.79489 5.32589 7.79489 4.88654 8.23423C4.4472 8.67358 4.4472 9.38588 4.88654 9.82523L8.87249 13.8111Z" fill="white"/>
</g>
<defs>
<clipPath id="clip0_494_23676">
<rect width="18" height="18" fill="white" transform="translate(0.667969 0.5)"/>
</clipPath>
</defs>
</svg>
