<svg width="24" height="24" viewBox="0 0 24 24" fill="none" xmlns="http://www.w3.org/2000/svg">
<path fill-rule="evenodd" clip-rule="evenodd" d="M3.28418 2C3.28418 1.30964 3.84382 0.75 4.53418 0.75H18.9858C20.8456 0.75 21.9024 2.87818 20.7784 4.35987L16.1807 10.4205V21C16.1807 22.2426 15.1733 23.25 13.9307 23.25H10.4997C9.25706 23.25 8.2497 22.2426 8.2497 21V11.0764L4.73838 7.43967C4.25886 6.94303 4.27274 6.15169 4.76938 5.67218C5.26603 5.19266 6.05736 5.20654 6.53688 5.70319L10.1184 9.41257C10.5233 9.83203 10.7497 10.3923 10.7497 10.9754V20.75H13.6807V10.3364C13.6807 9.84533 13.8413 9.36774 14.1381 8.97652L18.4824 3.25H4.53418C3.84382 3.25 3.28418 2.69036 3.28418 2Z" fill="#C2964D"/>
</svg>
