<svg width="24" height="24" viewBox="0 0 24 24" fill="none" xmlns="http://www.w3.org/2000/svg">
<g clip-path="url(#clip0_457_13440)">
<path d="M5.63604 16.364C3.94821 14.6761 3 12.3869 3 10H5.12877C5.12877 11.8224 5.8527 13.5701 7.14131 14.8587C8.42991 16.1473 10.1776 16.8712 12 16.8712C13.8224 16.8712 15.5701 16.1473 16.8587 14.8587C18.1473 13.5701 18.8712 11.8224 18.8712 10H21C21 12.387 20.0518 14.6761 18.364 16.364C16.9135 17.8144 15.019 18.7186 13 18.9443V24H11V18.9443C8.98098 18.7186 7.08647 17.8144 5.63604 16.364Z" fill="#1A3C54"/>
<rect x="8" y="1" width="8" height="14" rx="4" fill="#1A3C54"/>
</g>
<defs>
<clipPath id="clip0_457_13440">
<rect width="24" height="24" fill="white"/>
</clipPath>
</defs>
</svg>
