<svg width="33" height="33" viewBox="0 0 33 33" fill="none" xmlns="http://www.w3.org/2000/svg">
<path d="M24.25 15.6176C24.25 18.8041 20.4612 22.4533 18.2695 24.2977C17.3826 25.044 16.1174 25.044 15.2305 24.2977C13.0388 22.4533 9.25 18.8041 9.25 15.6176C9.25 11.1344 12.6079 7.5 16.75 7.5C20.8921 7.5 24.25 11.1344 24.25 15.6176Z" fill="#C8E2F3"/>
<path fill-rule="evenodd" clip-rule="evenodd" d="M16.7494 10.5C17.136 10.5 17.4494 10.8134 17.4494 11.2V13.3001H19.55C19.9366 13.3001 20.25 13.6135 20.25 14.0001C20.25 14.3867 19.9366 14.7001 19.55 14.7001H17.4494V16.9883L18.2194 16.5438C18.5542 16.3505 18.9823 16.4652 19.1756 16.8C19.3689 17.1348 19.2542 17.563 18.9194 17.7562L17.4494 18.6049V21C17.4494 21.3866 17.136 21.7 16.7494 21.7C16.3628 21.7 16.0494 21.3866 16.0494 21V19.4132L15.2821 19.8562C14.9473 20.0496 14.5192 19.9348 14.3259 19.6C14.1326 19.2652 14.2473 18.8371 14.5821 18.6438L16.0494 17.7966V14.7001H13.95C13.5634 14.7001 13.25 14.3867 13.25 14.0001C13.25 13.6135 13.5634 13.3001 13.95 13.3001H16.0494V11.2C16.0494 10.8134 16.3628 10.5 16.7494 10.5Z" fill="#F1F7FF"/>
</svg>
