<svg width="24" height="24" viewBox="0 0 24 24" fill="none" xmlns="http://www.w3.org/2000/svg">
<g clip-path="url(#clip0_4002_7893)">
<path fill-rule="evenodd" clip-rule="evenodd" d="M10.5 3.25C6.42346 3.25 3.25 6.34239 3.25 10C3.25 13.6576 6.42346 16.75 10.5 16.75C11.1904 16.75 11.75 17.3096 11.75 18C11.75 18.6904 11.1904 19.25 10.5 19.25C5.1877 19.25 0.75 15.1789 0.75 10C0.75 4.82106 5.1877 0.75 10.5 0.75C15.8123 0.75 20.25 4.82106 20.25 10H17.75C17.75 6.34239 14.5765 3.25 10.5 3.25Z" fill="black"/>
<path fill-rule="evenodd" clip-rule="evenodd" d="M23.4101 6.32901C23.8982 6.81716 23.8982 7.60862 23.4101 8.09677L18.763 12.7438L14.116 8.09677C13.6278 7.60862 13.6278 6.81716 14.116 6.32901C14.6041 5.84085 15.3956 5.84085 15.8838 6.32901L18.763 9.20828L21.6423 6.32901C22.1305 5.84085 22.9219 5.84085 23.4101 6.32901Z" fill="black"/>
<path d="M22.36 18.0159C22.1147 18.0159 21.888 17.9546 21.68 17.8319C21.472 17.7092 21.3067 17.5439 21.184 17.3359C21.0613 17.1279 21 16.9012 21 16.6559C21 16.4052 21.0613 16.1759 21.184 15.9679C21.3067 15.7599 21.4693 15.5972 21.672 15.4799C21.88 15.3572 22.1093 15.2959 22.36 15.2959C22.6107 15.2959 22.8373 15.3572 23.04 15.4799C23.2427 15.6026 23.4053 15.7679 23.528 15.9759C23.656 16.1786 23.72 16.4052 23.72 16.6559C23.72 16.9012 23.6587 17.1279 23.536 17.3359C23.4133 17.5439 23.248 17.7092 23.04 17.8319C22.8373 17.9546 22.6107 18.0159 22.36 18.0159ZM22.36 17.0719C22.4773 17.0719 22.576 17.0319 22.656 16.9519C22.736 16.8719 22.776 16.7732 22.776 16.6559C22.776 16.5386 22.736 16.4399 22.656 16.3599C22.576 16.2799 22.4773 16.2399 22.36 16.2399C22.2427 16.2399 22.144 16.2799 22.064 16.3599C21.984 16.4399 21.944 16.5386 21.944 16.6559C21.944 16.7732 21.984 16.8719 22.064 16.9519C22.144 17.0319 22.2427 17.0719 22.36 17.0719Z" fill="black"/>
<path d="M18.5613 21.1039C18.2466 21.1039 17.9533 21.0532 17.6813 20.9519C17.4093 20.8452 17.172 20.6772 16.9693 20.4479C16.7666 20.2186 16.6066 19.9199 16.4893 19.5519C16.3773 19.1786 16.3213 18.7279 16.3213 18.1999V18.0399C16.3213 17.5492 16.3773 17.1306 16.4893 16.7839C16.6066 16.4372 16.7666 16.1546 16.9693 15.9359C17.172 15.7172 17.4093 15.5572 17.6813 15.4559C17.9533 15.3492 18.2466 15.2959 18.5613 15.2959C18.876 15.2959 19.1693 15.3492 19.4413 15.4559C19.7133 15.5572 19.9506 15.7172 20.1533 15.9359C20.356 16.1546 20.5133 16.4372 20.6253 16.7839C20.7426 17.1306 20.8013 17.5492 20.8013 18.0399V18.1999C20.8013 18.7279 20.7426 19.1786 20.6253 19.5519C20.5133 19.9199 20.356 20.2186 20.1533 20.4479C19.9506 20.6772 19.7133 20.8452 19.4413 20.9519C19.1693 21.0532 18.876 21.1039 18.5613 21.1039ZM18.5613 19.9199C18.668 19.9199 18.7693 19.8932 18.8653 19.8399C18.9613 19.7866 19.044 19.6959 19.1133 19.5679C19.188 19.4346 19.2466 19.2586 19.2893 19.0399C19.332 18.8159 19.3533 18.5359 19.3533 18.1999V18.0399C19.3533 17.6452 19.3186 17.3359 19.2493 17.1119C19.18 16.8826 19.084 16.7199 18.9613 16.6239C18.8386 16.5279 18.7053 16.4799 18.5613 16.4799C18.4173 16.4799 18.284 16.5279 18.1613 16.6239C18.044 16.7199 17.948 16.8826 17.8733 17.1119C17.7986 17.3359 17.7613 17.6452 17.7613 18.0399V18.1999C17.7613 18.5359 17.7826 18.8159 17.8253 19.0399C17.868 19.2586 17.9266 19.4346 18.0013 19.5679C18.0813 19.6959 18.1666 19.7866 18.2573 19.8399C18.3533 19.8932 18.4546 19.9199 18.5613 19.9199Z" fill="black"/>
<path d="M13.5232 21.1039C12.7818 21.1039 12.2165 20.8932 11.8272 20.4719C11.4378 20.0452 11.2432 19.3546 11.2432 18.3999V18.2399C11.2432 17.5359 11.3418 16.9679 11.5392 16.5359C11.7365 16.1039 12.0112 15.7892 12.3632 15.5919C12.7205 15.3946 13.1338 15.2959 13.6032 15.2959C13.9765 15.2959 14.2992 15.3466 14.5712 15.4479C14.8432 15.5439 15.0618 15.7012 15.2272 15.9199C15.3925 16.1386 15.4912 16.4319 15.5232 16.7999H14.1632C14.1258 16.6719 14.0565 16.5759 13.9552 16.5119C13.8592 16.4479 13.7285 16.4159 13.5632 16.4159C13.3818 16.4159 13.2218 16.4586 13.0832 16.5439C12.9445 16.6292 12.8352 16.7732 12.7552 16.9759C12.6752 17.1786 12.6298 17.4666 12.6192 17.8399C12.7472 17.6532 12.9258 17.5226 13.1552 17.4479C13.3845 17.3732 13.6298 17.3359 13.8912 17.3359C14.2645 17.3359 14.5818 17.4079 14.8432 17.5519C15.1045 17.6959 15.3018 17.8986 15.4352 18.1599C15.5738 18.4212 15.6432 18.7279 15.6432 19.0799V19.1679C15.6432 19.5572 15.5552 19.8986 15.3792 20.1919C15.2085 20.4852 14.9632 20.7119 14.6432 20.8719C14.3232 21.0266 13.9498 21.1039 13.5232 21.1039ZM13.4432 19.9839C13.6778 19.9839 13.8618 19.9172 13.9952 19.7839C14.1285 19.6452 14.1952 19.4559 14.1952 19.2159V19.1359C14.1952 18.9012 14.1285 18.7172 13.9952 18.5839C13.8618 18.4452 13.6778 18.3759 13.4432 18.3759C13.2085 18.3759 13.0218 18.4452 12.8832 18.5839C12.7498 18.7172 12.6832 18.9012 12.6832 19.1359V19.2159C12.6832 19.4559 12.7498 19.6452 12.8832 19.7839C13.0218 19.9172 13.2085 19.9839 13.4432 19.9839Z" fill="black"/>
<path d="M8.40023 21.1039C7.92557 21.1039 7.52557 21.0186 7.20023 20.8479C6.88023 20.6772 6.64023 20.4426 6.48023 20.1439C6.32023 19.8452 6.24023 19.5039 6.24023 19.1199H7.68023C7.68023 19.3812 7.7389 19.5786 7.85623 19.7119C7.9789 19.8399 8.17623 19.9039 8.44823 19.9039C8.67223 19.9039 8.83757 19.8479 8.94423 19.7359C9.05623 19.6186 9.11223 19.4639 9.11223 19.2719C9.11223 19.0692 9.05623 18.9146 8.94423 18.8079C8.83223 18.7012 8.6509 18.6479 8.40023 18.6479H7.92823V17.5919H8.40023C8.61357 17.5919 8.7709 17.5439 8.87223 17.4479C8.9789 17.3519 9.03223 17.2106 9.03223 17.0239C9.03223 16.8586 8.98157 16.7306 8.88023 16.6399C8.7789 16.5439 8.6349 16.4959 8.44823 16.4959C8.21357 16.4959 8.04023 16.5546 7.92823 16.6719C7.81623 16.7892 7.76023 16.9652 7.76023 17.1999H6.32023C6.32023 16.7999 6.40023 16.4586 6.56023 16.1759C6.72023 15.8932 6.9549 15.6772 7.26423 15.5279C7.5789 15.3732 7.95757 15.2959 8.40023 15.2959C8.8429 15.2959 9.2189 15.3626 9.52823 15.4959C9.83757 15.6239 10.0722 15.8052 10.2322 16.0399C10.3976 16.2746 10.4802 16.5439 10.4802 16.8479C10.4802 17.1519 10.3949 17.4106 10.2242 17.6239C10.0536 17.8372 9.82423 17.9892 9.53623 18.0799C9.87223 18.1706 10.1256 18.3252 10.2962 18.5439C10.4722 18.7626 10.5602 19.0479 10.5602 19.3999C10.5602 19.7359 10.4722 20.0346 10.2962 20.2959C10.1202 20.5519 9.86957 20.7519 9.54423 20.8959C9.22423 21.0346 8.8429 21.1039 8.40023 21.1039Z" fill="black"/>
</g>
<defs>
<clipPath id="clip0_4002_7893">
<rect width="24" height="24" fill="white"/>
</clipPath>
</defs>
</svg>
