<svg width="49" height="45" viewBox="0 0 49 45" fill="none" xmlns="http://www.w3.org/2000/svg">
<path d="M12.3501 0L17.0001 3.45C15.9001 4.75 14.7001 6.75 13.4001 9.45C12.2001 12.05 11.2001 14.9 10.4001 18C9.6001 21.1 9.3001 24.15 9.5001 27.15C10.2001 26.95 10.8001 26.8 11.3001 26.7C11.9001 26.5 12.5001 26.4 13.1001 26.4C15.3001 26.4 17.1501 27.15 18.6501 28.65C20.2501 30.05 21.0501 32.05 21.0501 34.65C21.0501 37.55 20.2001 39.9 18.5001 41.7C16.8001 43.4 14.6501 44.25 12.0501 44.25C8.2501 44.25 5.3501 42.85 3.3501 40.05C1.3501 37.25 0.350098 33.85 0.350098 29.85C0.350098 27.05 0.800098 23.9 1.7001 20.4C2.7001 16.8 4.1001 13.2 5.9001 9.6C7.7001 5.9 9.8501 2.7 12.3501 0ZM39.9501 0L44.6001 3.45C43.5001 4.75 42.3001 6.75 41.0001 9.45C39.8001 12.05 38.8001 14.9 38.0001 18C37.2001 21.1 36.9001 24.15 37.1001 27.15C37.8001 26.95 38.4001 26.8 38.9001 26.7C39.5001 26.5 40.1001 26.4 40.7001 26.4C42.9001 26.4 44.7501 27.15 46.2501 28.65C47.8501 30.05 48.6501 32.05 48.6501 34.65C48.6501 37.55 47.8001 39.9 46.1001 41.7C44.4001 43.4 42.2501 44.25 39.6501 44.25C35.8501 44.25 32.9501 42.85 30.9501 40.05C28.9501 37.25 27.9501 33.85 27.9501 29.85C27.9501 27.05 28.4001 23.9 29.3001 20.4C30.3001 16.8 31.7001 13.2 33.5001 9.6C35.3001 5.9 37.4501 2.7 39.9501 0Z" fill="#F1F7FF"/>
</svg>
