<svg width="24" height="24" viewBox="0 0 24 24" fill="none" xmlns="http://www.w3.org/2000/svg">
<path fill-rule="evenodd" clip-rule="evenodd" d="M17.7107 15.5364C20.1472 12.0699 19.8159 7.25145 16.7171 4.15258C13.2473 0.682862 7.62182 0.682863 4.1521 4.15258C0.682374 7.6223 0.682374 13.2478 4.1521 16.7176C7.31723 19.8827 12.2763 20.1605 15.7564 17.5511L20.5347 22.5189L22.5187 20.5349L17.7107 15.5364ZM14.7331 6.13653C17.1071 8.51055 17.1071 12.3596 14.7331 14.7336C12.3591 17.1076 8.51006 17.1076 6.13604 14.7336C3.76202 12.3596 3.76202 8.51055 6.13604 6.13653C8.51006 3.76251 12.3591 3.76251 14.7331 6.13653Z" fill="#1A3C54"/>
</svg>
