<svg width="19" height="19" viewBox="0 0 19 19" fill="none" xmlns="http://www.w3.org/2000/svg">
<path d="M11.2261 1.93445C10.9111 1.67568 10.4724 1.61945 10.1067 1.79382C9.73548 1.9682 9.49924 2.33943 9.49924 2.75008V4.97755C1.16861 8.03196 1.23048 15.0801 1.23048 15.1532C1.24174 15.5919 1.52862 15.9857 1.94487 16.1263C2.05734 16.1657 2.16985 16.1826 2.28236 16.1826C2.59736 16.1826 2.90673 16.042 3.10925 15.7888C3.13736 15.7494 6.01173 12.2169 9.49924 11.5813V13.4488C9.49924 13.8538 9.73548 14.2251 10.1067 14.3994C10.4724 14.5738 10.9111 14.5176 11.2261 14.2588L17.723 8.90946C17.9649 8.71256 18.1055 8.41446 18.1055 8.09946C18.1055 7.78446 17.9649 7.48068 17.723 7.28383L11.2261 1.93445Z" fill="white"/>
</svg>
