<svg width="24" height="24" viewBox="0 0 24 24" fill="none" xmlns="http://www.w3.org/2000/svg">
<g clip-path="url(#clip0_329_9661)">
<path fill-rule="evenodd" clip-rule="evenodd" d="M8.06248 14.1203L14.1202 8.06257L15.9375 9.87988L9.87979 15.9376L8.06248 14.1203Z" fill="#C2964D"/>
<path fill-rule="evenodd" clip-rule="evenodd" d="M18.361 5.63914C16.6045 3.88271 13.7568 3.88271 12.0004 5.63914L9.70963 7.92987L7.89232 6.11256L10.1831 3.82183C12.9432 1.06172 17.4182 1.06172 20.1783 3.82183C22.9384 6.58193 22.9384 11.0569 20.1783 13.817L17.8875 16.1078L16.0702 14.2905L18.361 11.9997C20.1174 10.2433 20.1174 7.39557 18.361 5.63914Z" fill="#C2964D"/>
<path fill-rule="evenodd" clip-rule="evenodd" d="M5.63904 18.3609C7.39547 20.1173 10.2432 20.1173 11.9996 18.3609L14.2887 16.0718L16.106 17.8891L13.8169 20.1782C11.0568 22.9383 6.58183 22.9383 3.82173 20.1782C1.06162 17.4181 1.06162 12.9431 3.82173 10.183L6.11081 7.89387L7.92812 9.71119L5.63904 12.0003C3.88261 13.7567 3.88261 16.6044 5.63904 18.3609Z" fill="#C2964D"/>
</g>
<defs>
<clipPath id="clip0_329_9661">
<rect width="24" height="24" fill="white"/>
</clipPath>
</defs>
</svg>
