<svg width="19" height="19" viewBox="0 0 19 19" fill="none" xmlns="http://www.w3.org/2000/svg">
<g clip-path="url(#clip0_494_23684)">
<path d="M12.5196 0.563748C12.2959 0.457038 12.0323 0.485323 11.8395 0.640888L5.58603 5.64339H2.59816C1.88976 5.64339 1.3125 6.22065 1.3125 6.92905V12.0717C1.3125 12.7814 1.88976 13.3573 2.59816 13.3573H5.58603L11.8382 18.3598C11.9552 18.4524 12.0979 18.5 12.2406 18.5C12.3357 18.5 12.4309 18.4781 12.5196 18.4357C12.742 18.329 12.8834 18.104 12.8834 17.8572V1.14358C12.8834 0.896734 12.742 0.671744 12.5196 0.563748Z" fill="white"/>
<path d="M16.1374 4.95452C15.8841 4.7051 15.4779 4.70896 15.2284 4.95966C14.979 5.21294 14.9816 5.61921 15.2336 5.86991C16.2055 6.82901 16.7404 8.11853 16.7404 9.50061C16.7404 10.8827 16.2055 12.1722 15.2336 13.1313C14.9816 13.3794 14.979 13.787 15.2284 14.0403C15.3544 14.1676 15.5203 14.2306 15.6848 14.2306C15.8481 14.2306 16.0114 14.1688 16.1374 14.0441C17.3562 12.8446 18.026 11.2298 18.026 9.50061C18.026 7.7714 17.3562 6.15661 16.1374 4.95452Z" fill="white"/>
</g>
<defs>
<clipPath id="clip0_494_23684">
<rect width="18" height="18" fill="white" transform="translate(0.667969 0.5)"/>
</clipPath>
</defs>
</svg>
