<svg width="154" height="155" viewBox="0 0 154 155" fill="none" xmlns="http://www.w3.org/2000/svg">
<path d="M139.749 54.9011C138.786 54.4138 137.69 53.9874 136.509 53.6463L136.326 53.5853L136.204 53.427C136.021 53.1955 135.753 53.0859 135.388 53.098C132.684 53.232 130.954 51.4047 130.625 48.1519C130.126 43.2667 133.001 36.5054 136.923 35.8719C138.92 35.5429 141.162 36.1155 142.916 37.4069C144.414 38.5033 145.376 40.0139 145.608 41.6586C145.936 43.9246 144.901 46.0443 143.025 46.9336C142.319 47.4697 140.979 47.9692 139.213 46.9336C137.788 45.7641 137.264 44.8626 137.459 44.022C137.629 43.2911 138.324 42.7916 139.566 42.4992L140.029 42.3895L140.248 42.8038C140.516 43.3032 140.906 43.4251 141.198 43.4372C141.673 43.4494 142.185 43.1936 142.428 42.8038C142.635 42.4748 142.635 42.1093 142.428 41.7195C141.624 40.1967 140.54 39.4292 139.261 39.5145C137.739 39.6119 136.216 40.9155 135.546 42.6941C134.828 44.619 135.303 46.6169 136.862 48.1641C139.042 50.3204 141.722 50.6615 144.195 49.1143C146.826 47.4575 148.933 43.6565 147.63 39.8556C146.46 36.4566 143.184 33.9592 139.261 33.4963C135.692 33.0821 132.526 34.4952 130.771 37.2729C130.528 37.6627 130.284 38.1256 130.028 38.6617L129.176 40.5256L128.871 38.5033C128.311 34.7389 127.069 31.6811 125.059 29.1593C122.537 27.1491 119.48 25.9065 115.716 25.3461L113.682 25.0416L115.546 24.1888C116.069 23.9451 116.532 23.7015 116.934 23.4578C119.711 21.7035 121.124 18.5361 120.71 14.9666C120.247 11.0438 117.75 7.76665 114.352 6.59712C110.552 5.29359 106.751 7.40117 105.095 10.0326C103.536 12.5057 103.889 15.1858 106.045 17.3665C107.592 18.9259 109.577 19.4132 111.514 18.6822C113.28 18.0244 114.596 16.4894 114.693 14.9666C114.778 13.6996 114.011 12.6031 112.488 11.7991C112.172 11.6285 111.867 11.6042 111.575 11.7138C111.319 11.8113 111.075 12.0427 110.929 12.3229C110.71 12.7371 110.564 13.5412 111.392 13.9798L111.806 14.1991L111.697 14.662C111.404 15.9168 110.905 16.599 110.174 16.7696C109.334 16.9645 108.432 16.4285 107.324 15.0884C106.24 13.2488 106.739 11.9087 107.324 11.0925C108.152 9.32602 110.271 8.27832 112.537 8.60725C114.181 8.83872 115.692 9.80114 116.788 11.2996C118.067 13.0539 118.652 15.2955 118.323 17.2934C117.689 21.2284 110.929 24.0913 106.045 23.5918C102.793 23.2629 100.99 21.5208 101.099 18.8284C101.112 18.463 101.002 18.1949 100.771 18.0122L100.612 17.8904L100.563 17.7076C100.21 16.5259 99.7961 15.4417 99.3089 14.4671C94.5706 5.01339 84.5703 1.51699 76.9696 0.25C69.3688 1.51699 59.3685 5.01339 54.6302 14.4671C54.143 15.4295 53.7167 16.5259 53.3756 17.7076L53.3269 17.8904L53.1686 18.0122C52.9371 18.1949 52.8275 18.463 52.8519 18.8284C52.9615 21.5208 51.1587 23.2629 47.9065 23.5918C43.0221 24.0913 36.2618 21.2162 35.6284 17.2934C35.2995 15.2955 35.8842 13.0539 37.1632 11.2996C38.2594 9.80114 39.7698 8.83872 41.4142 8.60725C43.692 8.27832 45.7993 9.31384 46.6884 11.19C47.2244 11.9087 47.7238 13.2488 46.6884 15.0031C45.5191 16.4285 44.6056 16.9523 43.7773 16.7574C43.0464 16.5868 42.547 15.8924 42.2547 14.6498L42.1451 14.1869L42.5592 13.9676C43.3875 13.529 43.2413 12.725 43.0221 12.3108C42.8759 12.0306 42.6323 11.7991 42.3765 11.7016C42.0963 11.592 41.7918 11.6163 41.4629 11.7869C39.9404 12.591 39.173 13.6874 39.2582 14.9544C39.3557 16.4772 40.659 18 42.4374 18.6701C44.3619 19.3888 46.3596 18.9137 47.9065 17.3543C50.0625 15.1737 50.4035 12.4935 48.8566 10.0204C47.2 7.38899 43.3875 5.28141 39.5993 6.58494C36.2009 7.75447 33.7039 11.0316 33.241 14.9544C32.8269 18.5117 34.2398 21.6913 37.017 23.4456C37.4068 23.6893 37.8818 23.9451 38.4056 24.1766L40.2692 25.0294L38.2351 25.3339C34.4712 25.8943 31.4139 27.137 28.8925 29.1471C26.8827 31.6689 25.6281 34.7267 25.08 38.4911L24.7754 40.5256L23.9228 38.6617C23.6792 38.1378 23.4356 37.6749 23.192 37.2729C21.438 34.4952 18.271 33.0821 14.702 33.4963C10.7799 33.9592 7.50328 36.4566 6.33394 39.8556C5.03061 43.6565 7.13786 47.4575 9.76888 49.1143C12.2537 50.6737 14.9213 50.3204 17.1016 48.1641C18.6608 46.6169 19.148 44.6311 18.4171 42.6941C17.7594 40.9276 16.2246 39.6119 14.702 39.5145C13.4596 39.4292 12.339 40.1967 11.5351 41.7195C11.328 42.1093 11.328 42.4748 11.5351 42.8038C11.7787 43.1936 12.2781 43.4494 12.7653 43.4372C13.0455 43.4372 13.4474 43.3032 13.7154 42.8038L13.9347 42.3895L14.3975 42.4992C15.6521 42.7916 16.3343 43.2911 16.5048 44.022C16.6997 44.8626 16.1637 45.7641 14.8239 46.8727C12.9846 47.957 11.6447 47.4575 10.8286 46.8605C9.05023 46.0443 8.01487 43.9245 8.34375 41.6464C8.58736 40.0018 9.53745 38.5033 11.0357 37.3947C12.7897 36.1155 15.0309 35.5308 17.0286 35.8597C20.9629 36.4932 23.8254 43.2545 23.326 48.1397C22.9971 51.3925 21.2918 53.2199 18.5633 53.0858C18.1857 53.0737 17.9299 53.1833 17.7472 53.4148L17.6254 53.5732L17.4427 53.6341C16.2612 53.9752 15.1649 54.4016 14.2026 54.8889C4.76264 59.6401 1.26679 69.642 0 77.2439C1.26679 84.8337 4.76264 94.8356 14.2148 99.5868C15.1771 100.074 16.2734 100.5 17.4549 100.842L17.6376 100.89L17.7594 101.049C17.9421 101.28 18.2223 101.39 18.5755 101.378C21.2796 101.305 23.0093 103.059 23.3381 106.324C23.8375 111.209 20.9629 117.97 17.0407 118.604C15.0309 118.921 12.8019 118.348 11.0479 117.069C9.54963 115.972 8.58736 114.462 8.35593 112.817C8.02705 110.539 9.06241 108.431 10.9382 107.542C11.6447 107.006 12.9968 106.506 14.7508 107.542C16.1759 108.712 16.6997 109.613 16.5048 110.454C16.3343 111.185 15.64 111.684 14.3975 111.976L13.9347 112.086L13.7154 111.672C13.5449 111.343 13.2891 111.136 12.9846 111.063C12.6922 111.002 12.3634 111.051 12.071 111.209C11.5838 111.465 11.1575 112.025 11.5473 112.768C12.3512 114.291 13.4474 115.046 14.7142 114.973C16.2368 114.876 17.7594 113.572 18.4293 111.794C19.148 109.869 18.6729 107.871 17.1138 106.324C14.9335 104.167 12.2537 103.826 9.78106 105.373C7.15004 107.03 5.04279 110.831 6.34612 114.632C7.51546 118.031 10.7921 120.529 14.7142 120.992C18.271 121.418 21.4501 119.993 23.2041 117.215C23.4478 116.825 23.7036 116.35 23.935 115.826L24.7876 113.962L25.0921 115.997C25.6525 119.761 26.8949 122.819 28.9047 125.341C31.4261 127.351 34.4834 128.593 38.2473 129.154L40.2814 129.458L38.4178 130.311C37.894 130.555 37.4311 130.799 37.0292 131.042C34.252 132.796 32.839 135.964 33.2532 139.533C33.716 143.456 36.2131 146.733 39.6115 147.903C43.4118 149.206 47.2122 147.099 48.8688 144.467C50.4279 141.994 50.0747 139.314 47.9187 137.133C46.3839 135.574 44.3863 135.099 42.4496 135.818C40.6834 136.476 39.3679 138.011 39.2704 139.533C39.1852 140.8 39.9525 141.897 41.4751 142.701C42.206 143.091 42.7785 142.664 43.0343 142.177C43.2535 141.763 43.3997 140.959 42.5714 140.52L42.1572 140.301L42.2669 139.838C42.5592 138.583 43.0586 137.901 43.7895 137.73C44.6177 137.535 45.5313 138.072 46.6397 139.412C47.7238 141.251 47.2244 142.591 46.6397 143.408C45.8114 145.186 43.692 146.222 41.4264 145.893C39.782 145.649 38.2838 144.699 37.1754 143.2C35.8964 141.446 35.3117 139.205 35.6406 137.207C36.2253 133.576 42.0476 130.847 46.7859 130.847C47.1757 130.847 47.5533 130.859 47.9309 130.908C51.1831 131.237 52.9858 132.979 52.8762 135.672C52.864 136.037 52.9737 136.305 53.1929 136.488L53.3513 136.61L53.4 136.792C53.7532 137.974 54.1674 139.07 54.6546 140.033C59.3929 149.487 69.3932 152.983 76.9939 154.25C84.5946 152.983 94.595 149.487 99.3332 140.033C99.8205 139.07 100.247 137.974 100.588 136.792L100.637 136.61L100.795 136.488C101.026 136.305 101.136 136.037 101.124 135.672C101.014 132.979 102.817 131.237 106.069 130.908C110.954 130.409 117.714 133.284 118.347 137.207C118.676 139.205 118.104 141.446 116.812 143.2C115.716 144.699 114.206 145.661 112.561 145.893C110.284 146.222 108.176 145.186 107.287 143.31C106.751 142.603 106.252 141.263 107.287 139.497C108.457 138.072 109.358 137.535 110.198 137.743C110.929 137.913 111.429 138.608 111.721 139.85L111.831 140.313L111.416 140.532C110.588 140.971 110.734 141.775 110.954 142.189C111.209 142.677 111.77 143.103 112.513 142.713C114.035 141.909 114.803 140.813 114.717 139.546C114.62 138.023 113.317 136.5 111.538 135.83C109.602 135.111 107.616 135.586 106.069 137.146C103.913 139.326 103.572 142.007 105.119 144.48C106.776 147.111 110.576 149.219 114.376 147.915C117.775 146.758 120.272 143.468 120.735 139.546C121.149 135.988 119.736 132.809 116.959 131.054C116.557 130.799 116.094 130.555 115.57 130.323L113.706 129.471L115.741 129.166C119.504 128.606 122.562 127.363 125.083 125.353C127.093 122.831 128.335 119.773 128.896 116.009L129.2 113.987L130.053 115.851C130.296 116.387 130.552 116.849 130.796 117.239C132.55 120.017 135.717 121.442 139.286 121.016C143.208 120.553 146.485 118.068 147.654 114.657C148.945 110.856 146.85 107.055 144.219 105.398C141.734 103.838 139.067 104.192 136.886 106.348C135.327 107.895 134.84 109.881 135.571 111.818C136.228 113.585 137.763 114.9 139.286 114.998C140.565 115.059 141.649 114.315 142.453 112.793C142.66 112.403 142.66 112.037 142.453 111.708C142.209 111.319 141.698 111.063 141.223 111.063C140.942 111.063 140.54 111.197 140.272 111.696L140.053 112.11L139.59 112.001C138.336 111.708 137.654 111.209 137.483 110.478C137.288 109.637 137.824 108.736 139.164 107.627C141.015 106.543 142.343 107.042 143.159 107.627C144.938 108.443 145.973 110.563 145.644 112.841C145.4 114.474 144.45 115.985 142.952 117.093C141.198 118.372 138.969 118.957 136.959 118.628C133.025 117.995 130.162 111.233 130.662 106.348C130.991 103.095 132.757 101.329 135.425 101.402C135.778 101.426 136.058 101.305 136.241 101.073L136.362 100.915L136.545 100.866C137.727 100.513 138.811 100.098 139.785 99.6111C149.237 94.8721 152.733 84.8702 154 77.2683C152.733 69.6785 149.237 59.6766 139.785 54.9254L139.749 54.9011ZM101.039 28.611L101.124 28.1847L101.55 28.1237C108.286 27.2588 115.935 26.272 122.245 30.1461C122.598 30.3653 122.927 30.5846 123.244 30.8161L123.378 30.9501C123.609 31.2668 123.841 31.5958 124.048 31.9491C127.921 38.2718 126.935 45.9103 126.07 52.6473L126.009 53.0737L125.583 53.1589C123.353 53.6341 121.368 54.4503 119.687 55.5833L117.933 56.765L118.786 54.8401C120.284 51.4656 123.134 42.9621 117.458 36.6759C111.234 31.0354 102.707 33.8983 99.3454 35.3846L97.4209 36.2373L98.6024 34.4831C99.7352 32.8019 100.551 30.8161 101.026 28.5867L101.039 28.611ZM115.083 56.765L114.583 57.5934L114.06 56.7894C112.001 53.6462 109.334 50.759 106.142 48.2006L106.045 48.1032C103.487 44.8992 100.6 42.2434 97.4574 40.1845L96.6535 39.6606L97.4818 39.1612C100.868 37.1145 109.419 32.9359 115.777 38.418L115.838 38.4789C121.331 44.8382 117.154 53.3904 115.095 56.7772L115.083 56.765ZM29.9035 31.9613C30.1228 31.608 30.342 31.279 30.5734 30.9623L30.7074 30.8283C31.0241 30.5968 31.353 30.3653 31.7062 30.1582C38.028 26.2842 45.6653 27.271 52.4012 28.1359L52.8275 28.1968L52.9128 28.6232C53.3878 30.8526 54.2039 32.8384 55.3367 34.5196L56.5182 36.2739L54.5937 35.4211C51.2318 33.9227 42.7176 31.0597 36.4445 36.749C30.8049 42.9865 33.6673 51.5021 35.1534 54.8645L36.006 56.7894L34.252 55.6076C32.5711 54.4747 30.5856 53.6584 28.3566 53.1833L27.9302 53.098L27.8693 52.6716C27.0045 45.9347 26.0179 38.284 29.8913 31.9734L29.9035 31.9613ZM57.3343 39.6363L56.5304 40.1601C53.3391 42.2434 50.5375 44.8382 47.9431 48.0788L47.8456 48.1763C44.6543 50.7346 41.9867 53.6219 39.9282 56.765L39.4044 57.569L38.905 56.7406C36.8587 53.3539 32.6807 44.8017 38.162 38.4424L38.2229 38.3815C44.5812 32.8871 53.132 37.0658 56.5182 39.1246L57.3465 39.6241L57.3343 39.6363ZM52.9249 125.865L52.8397 126.291L52.4134 126.352C49.4413 126.73 46.2865 127.144 43.1439 127.144C39.1852 127.144 35.2386 126.498 31.7184 124.33C31.3652 124.11 31.0363 123.891 30.7196 123.66L30.5856 123.526C30.3542 123.209 30.1228 122.868 29.9157 122.527C26.0422 116.204 27.0289 108.565 27.8937 101.828L27.9546 101.402L28.3809 101.317C30.61 100.842 32.5954 100.025 34.2764 98.8924L36.0304 97.7228L35.1777 99.6477C33.6795 103.01 30.8171 111.526 36.5054 117.812C42.7297 123.452 51.244 120.59 54.6181 119.103L56.5426 118.25L55.3611 120.005C54.2283 121.686 53.4122 123.672 52.9371 125.901L52.9249 125.865ZM38.8806 97.7106L39.3801 96.8822L39.9038 97.6863C41.9623 100.829 44.6299 103.729 47.8212 106.275L47.9187 106.372C50.5132 109.613 53.3147 112.208 56.5061 114.291L57.31 114.815L56.4817 115.314C54.3379 116.618 50.1112 118.774 45.6775 118.774C43.1317 118.774 40.5129 118.056 38.1864 116.058L38.1254 115.997C32.6441 109.637 36.8099 101.085 38.8685 97.6985L38.8806 97.7106ZM124.048 122.514C123.829 122.868 123.609 123.197 123.378 123.513L123.244 123.647C122.927 123.879 122.586 124.11 122.245 124.317C118.725 126.486 114.778 127.132 110.82 127.132C107.677 127.132 104.522 126.73 101.55 126.34L101.124 126.279L101.039 125.852C100.563 123.623 99.7474 121.637 98.6146 119.956L97.433 118.202L99.3576 119.055C102.732 120.541 111.234 123.404 117.519 117.727C123.159 111.489 120.296 102.974 118.81 99.6111L117.957 97.6863L119.711 98.868C121.392 100.001 123.378 100.817 125.607 101.292L126.033 101.378L126.094 101.804C126.959 108.541 127.946 116.179 124.072 122.502L124.048 122.514ZM96.6169 114.839L97.4209 114.315C100.563 112.257 103.462 109.589 106.008 106.397L106.106 106.299C109.309 103.741 111.977 100.854 114.023 97.7106L114.547 96.9066L115.046 97.735C117.093 101.122 121.271 109.662 115.789 116.033L115.728 116.094C113.402 118.104 110.783 118.811 108.237 118.811C103.804 118.811 99.5768 116.655 97.433 115.351L96.6048 114.852L96.6169 114.839ZM151.54 77.2439V77.3414C150.334 84.3951 147.788 89.7554 143.744 93.7269C139.359 98.0274 131.222 100.33 125.217 98.9654C121.234 98.0639 118.445 95.6762 117.141 92.0579C117.093 91.9361 117.044 91.8265 116.946 91.7168L116.752 91.461L116.861 91.1564C117.982 87.9158 119.249 84.2489 121.076 82.0682L121.198 81.922L121.38 81.8733C121.526 81.8367 121.648 81.7758 121.77 81.6905C123.487 80.4357 125.631 80.0946 127.519 80.7769C129.225 81.3982 130.467 82.7992 130.93 84.6387C131.405 86.527 130.857 89.1219 128.883 90.1818C127.933 90.6935 126.801 90.6935 125.96 90.1818C125.388 89.8285 124.657 88.7686 124.827 87.8915C124.925 87.3433 125.351 86.9656 125.972 86.8681C126.91 86.7098 127.19 85.7839 127.093 85.187C127.032 84.8458 126.813 84.2854 126.009 84.4194C124.377 84.6996 123.061 85.8204 122.586 87.3676C122.123 88.8539 122.525 90.3645 123.695 91.5097C124.827 92.6183 126.301 93.13 127.86 92.9594C129.639 92.7645 131.32 91.7046 132.367 90.1209C134.365 87.0752 133.756 82.6408 130.966 80.0459C129.249 78.4378 126.849 77.719 124.401 78.0601L124.194 78.0845L124.011 77.9749C123.914 77.9139 123.816 77.8652 123.719 77.8409L123.451 77.7799L123.146 77.8409C118.64 78.9495 117.555 82.5799 116.289 86.7951L116.033 87.66C113.95 94.5188 110.016 100.22 104.364 104.618C99.9666 110.283 94.2661 114.206 87.4084 116.289L86.5435 116.545C82.329 117.812 78.687 118.896 77.5908 123.355L77.5177 123.672L77.5786 123.952C77.6029 124.049 77.6517 124.147 77.7126 124.244L77.8222 124.427L77.7978 124.634C77.4568 127.083 78.1754 129.483 79.7833 131.201C82.3778 133.99 86.7993 134.599 89.8567 132.602C91.4402 131.566 92.4999 129.885 92.6948 128.094C92.8653 126.547 92.3415 125.061 91.2453 123.928C90.1003 122.758 88.6021 122.356 87.1039 122.819C85.5691 123.294 84.4363 124.61 84.1561 126.242C84.0221 127.046 84.5825 127.266 84.9235 127.326C85.5204 127.424 86.4461 127.156 86.6044 126.206C86.7141 125.584 87.0917 125.17 87.6398 125.061C88.529 124.89 89.5887 125.621 89.9298 126.194C90.4414 127.046 90.4535 128.167 89.9298 129.117C88.8701 131.091 86.2878 131.651 84.3876 131.164C82.5483 130.701 81.1353 129.458 80.5263 127.753C79.8442 125.877 80.1852 123.733 81.4398 122.015C81.5251 121.905 81.586 121.771 81.6226 121.625L81.6713 121.442L81.8175 121.32C84.01 119.493 87.6763 118.226 90.9042 117.105L91.2087 116.996L91.4645 117.191C91.5863 117.276 91.696 117.337 91.8056 117.386C95.4111 118.689 97.7985 121.491 98.712 125.463C100.076 131.456 97.7741 139.594 93.4743 143.992C89.5034 148.037 84.144 150.583 77.0914 151.777H76.9939H76.8965C69.8439 150.583 64.4844 148.049 60.5135 143.992C56.2137 139.607 53.9116 131.469 55.2758 125.463C56.1772 121.479 58.5646 118.689 62.1822 117.386C62.2919 117.349 62.4015 117.288 62.5233 117.191L62.7791 116.996L63.0836 117.105C66.3237 118.226 69.99 119.493 72.1704 121.32L72.3165 121.442L72.3653 121.625C72.4018 121.771 72.4627 121.893 72.548 122.015C73.8026 123.733 74.1315 125.877 73.4615 127.753C72.8403 129.458 71.4395 130.701 69.6003 131.164C67.7001 131.651 65.1178 131.091 64.0581 129.117C63.5465 128.167 63.5465 127.046 64.0581 126.194C64.4113 125.621 65.471 124.89 66.348 125.061C66.8961 125.17 67.2738 125.584 67.3712 126.206C67.5295 127.144 68.4553 127.436 69.0521 127.326C69.3932 127.266 69.9535 127.046 69.8195 126.242C69.5394 124.61 68.4187 123.294 66.8718 122.819C65.3857 122.356 63.8753 122.758 62.7304 123.928C61.6219 125.061 61.1103 126.535 61.2809 128.094C61.4758 129.873 62.5355 131.554 64.119 132.602C67.1641 134.599 71.5979 133.99 74.1924 131.201C75.8002 129.483 76.5189 127.083 76.1778 124.634L76.1535 124.427L76.2631 124.244C76.324 124.147 76.3727 124.049 76.3971 123.94L76.458 123.66L76.3971 123.392C75.2886 118.872 71.6466 117.788 67.4321 116.521L66.5673 116.265C59.7096 114.181 54.009 110.247 49.6118 104.594C43.96 100.196 40.0256 94.4944 37.9427 87.6357L37.6869 86.7707C36.4202 82.5555 35.3361 78.9129 30.878 77.8165L30.5613 77.7434L30.2811 77.8043C30.1837 77.8287 30.0862 77.8774 29.9888 77.9383L29.8061 78.048L29.599 78.0236C27.1507 77.6825 24.7511 78.4013 23.0336 80.0094C20.2442 82.6042 19.6352 87.0265 21.6328 90.0843C22.6682 91.6681 24.3491 92.728 26.1397 92.9229C27.6744 93.0934 29.1727 92.5696 30.3055 91.4732C31.4748 90.328 31.8768 88.8295 31.4139 87.3311C30.9389 85.7961 29.6234 84.6631 27.9911 84.3829C27.1872 84.2489 26.968 84.8093 26.9071 85.1504C26.8096 85.7474 27.0898 86.6732 28.0277 86.8316C28.6489 86.9412 29.063 87.3067 29.1727 87.8549C29.3432 88.7321 28.6124 89.8041 28.0399 90.1453C27.1872 90.6569 26.0666 90.6691 25.1043 90.1453C23.1311 89.0854 22.5708 86.5027 23.058 84.6022C23.5208 82.7626 24.7633 81.3494 26.4686 80.7403C28.3444 80.0581 30.5004 80.3992 32.2057 81.654C32.3275 81.7393 32.4493 81.8002 32.5954 81.8367L32.7781 81.8855L32.8999 82.0317C34.727 84.2123 35.9938 87.8793 37.1145 91.1199L37.2241 91.4244L37.0292 91.6803C36.9317 91.8021 36.883 91.9117 36.8343 92.0214C35.531 95.6274 32.7294 98.0152 28.7585 98.9289C22.7656 100.293 14.629 97.9908 10.2317 93.6904C6.18777 89.7189 3.64202 84.3585 2.44831 77.3048V77.2074V77.1099C3.64202 70.0562 6.18777 64.6958 10.2317 60.7243C14.6168 56.4239 22.7535 54.1214 28.7585 55.4858C32.7416 56.3873 35.531 58.7751 36.8343 62.3933C36.8708 62.5152 36.9317 62.6126 37.0292 62.7345L37.2241 62.9903L37.1145 63.2949C35.9938 66.5354 34.727 70.2024 32.8999 72.3831L32.7781 72.5293L32.5954 72.578C32.4493 72.6145 32.3275 72.6754 32.2057 72.7607C30.4882 74.0155 28.3444 74.3445 26.4686 73.6744C24.7633 73.0531 23.5208 71.6521 23.058 69.8125C22.5829 67.9242 23.1311 65.3415 25.1043 64.2695C26.0544 63.7578 27.175 63.7578 28.0277 64.2695C28.6002 64.6227 29.331 65.6826 29.1605 66.5598C29.0509 67.108 28.6367 67.4857 28.0155 67.5831C27.3456 67.6928 27.0776 68.1801 26.968 68.4481C26.7974 68.9232 26.8583 69.4714 27.1141 69.776C27.309 70.0075 27.5892 70.0927 27.9668 70.0196C29.599 69.7394 30.9145 68.6186 31.3895 67.0714C31.8524 65.5852 31.4504 64.0745 30.2811 62.9294C29.1483 61.8208 27.6623 61.3091 26.1153 61.4796C24.3369 61.6746 22.656 62.7345 21.6085 64.3182C19.6109 67.3638 20.2199 71.7983 23.0093 74.3932C24.7267 76.0013 27.1263 76.7201 29.5746 76.3789L29.7817 76.3546L29.9644 76.4642C30.0619 76.5251 30.1593 76.5739 30.2567 76.5982L30.5369 76.6591L30.8049 76.5982C35.3239 75.4896 36.408 71.847 37.6748 67.6319L37.9306 66.7669C40.0134 59.9081 43.9356 54.2066 49.5996 49.8087C53.9968 44.156 59.6974 40.221 66.5551 38.1378L67.4199 37.882C71.6344 36.615 75.2764 35.5308 76.3727 31.0719L76.4458 30.743L76.3849 30.4628C76.3605 30.3653 76.3118 30.2557 76.2509 30.1582L76.1535 29.9755L76.1778 29.7684C76.5189 27.3197 75.8002 24.9197 74.1924 23.202C71.5979 20.4122 67.1641 19.803 64.119 21.801C62.5355 22.8365 61.4758 24.5177 61.2809 26.3085C61.1103 27.8557 61.6341 29.342 62.7304 30.475C63.8753 31.6445 65.3736 32.0465 66.8718 31.5836C68.4066 31.1085 69.5394 29.7928 69.8195 28.1603C69.9535 27.3562 69.3932 27.137 69.0521 27.076C68.4553 26.9786 67.5295 27.2588 67.3712 28.1968C67.2616 28.8182 66.8961 29.2324 66.348 29.342C65.471 29.5126 64.3991 28.7816 64.0581 28.209C63.5465 27.3562 63.5343 26.2354 64.0581 25.2852C65.1178 23.3116 67.7001 22.7512 69.5881 23.2263C71.4274 23.6893 72.8403 24.9319 73.4493 26.6375C74.1315 28.5136 73.7904 30.6577 72.5358 32.3755C72.4505 32.4973 72.3896 32.6191 72.3531 32.7653L72.3044 32.948L72.1582 33.0699C69.9779 34.8973 66.3115 36.1642 63.0714 37.285L62.7669 37.3947L62.5111 37.1998C62.3893 37.1145 62.2797 37.0536 62.1701 37.0048C58.5646 35.7013 56.1772 32.8993 55.2636 28.9278C53.8994 22.934 56.2015 14.796 60.5013 10.3981C64.4722 6.35347 69.8317 3.80731 76.8843 2.61342H76.9817H77.0792C84.1318 3.80731 89.4913 6.35347 93.4622 10.3981C97.7619 14.7838 100.064 22.9218 98.6998 28.9278C97.7985 32.9115 95.4111 35.7013 91.7934 37.0048C91.6838 37.0414 91.5742 37.1023 91.4524 37.1998L91.1966 37.3947L90.892 37.285C87.652 36.1642 83.9856 34.8973 81.8053 33.0699L81.6591 32.948L81.6104 32.7653C81.5617 32.6191 81.5129 32.4973 81.4277 32.3755C80.1731 30.6577 79.832 28.5136 80.5141 26.6375C81.1232 24.9319 82.5361 23.6893 84.3754 23.2263C86.2756 22.7512 88.8579 23.3116 89.9176 25.2852C90.4292 26.2354 90.4292 27.3562 89.9176 28.209C89.5643 28.7816 88.5046 29.5126 87.6276 29.342C87.0795 29.2324 86.7019 28.8182 86.5923 28.1968C86.4339 27.2588 85.5204 26.9786 84.9113 27.076C84.5703 27.137 84.01 27.3562 84.144 28.1603C84.4241 29.7928 85.5447 31.1085 87.0917 31.5836C88.5777 32.0465 90.0881 31.6445 91.2331 30.475C92.3415 29.342 92.8531 27.8679 92.6826 26.3085C92.4877 24.5299 91.428 22.8487 89.8445 21.801C86.7872 19.803 82.3656 20.4122 79.7711 23.202C78.1633 24.9197 77.4446 27.3197 77.7857 29.7684L77.81 29.9755L77.7004 30.1582C77.6395 30.2557 77.5908 30.3653 77.5664 30.4506L77.5055 30.7308L77.5664 30.9988C78.6748 35.5186 82.3169 36.6028 86.5314 37.8698L87.3962 38.1256C94.2539 40.2089 99.9544 44.1438 104.352 49.7966C110.003 54.1945 113.938 59.8959 116.021 66.7547L116.277 67.6197C117.543 71.8348 118.627 75.4774 123.086 76.5739L123.402 76.647L123.682 76.586C123.78 76.5617 123.889 76.513 123.975 76.452L124.157 76.3424L124.364 76.3668C126.825 76.7079 129.212 75.9891 130.93 74.381C133.719 71.7861 134.328 67.3638 132.331 64.306C131.295 62.7223 129.614 61.6624 127.824 61.4675C126.277 61.2969 124.791 61.8086 123.658 62.9172C122.489 64.0624 122.087 65.5608 122.55 67.0593C123.025 68.5943 124.34 69.7273 125.972 70.0075C126.35 70.0684 126.642 69.9831 126.825 69.7638C127.081 69.4471 127.142 68.8988 126.971 68.4359C126.874 68.1557 126.594 67.6806 125.924 67.5709C125.302 67.4613 124.888 67.0958 124.779 66.5476C124.608 65.6705 125.339 64.5984 125.911 64.2573C126.764 63.7456 127.885 63.7334 128.835 64.2573C130.808 65.3172 131.368 67.8999 130.881 69.8004C130.418 71.6399 129.176 73.0531 127.471 73.6622C125.583 74.3445 123.439 74.0033 121.733 72.7485C121.624 72.6633 121.49 72.6023 121.344 72.5658L121.161 72.5171L121.039 72.3709C119.212 70.1902 117.945 66.5232 116.825 63.2827L116.715 62.9781L116.91 62.7223C116.995 62.6004 117.056 62.4908 117.105 62.3812C118.408 58.7751 121.21 56.3873 125.181 55.4858C131.173 54.1214 139.31 56.4239 143.707 60.7243C147.751 64.6958 150.297 70.0562 151.491 77.1099V77.2074L151.54 77.2439Z" fill="white"/>
</svg>
