<svg width="86" height="86" viewBox="0 0 86 86" fill="none" xmlns="http://www.w3.org/2000/svg">
<path opacity="0.5" d="M73.5397 28.24L73.1534 27.996L73.4923 27.6978C74.6444 26.6812 75.356 25.0818 75.4441 23.3129C75.5322 21.4085 74.8952 19.5312 73.7295 18.2842C73.0856 17.5997 71.3846 16.4679 69.06 16.5425L68.694 16.556L68.7075 16.19C68.7956 13.8722 67.6571 12.1644 66.9658 11.5205C65.7188 10.3548 63.8347 9.71779 61.9371 9.80589C60.1682 9.88722 58.5688 10.5988 57.5522 11.7577L57.254 12.0966L57.01 11.7103C53.7028 6.43761 48.281 2.16118 42.4932 0.25C36.7055 2.1544 31.2837 6.43083 27.9764 11.7103L27.7324 12.0966L27.4342 11.7577C26.4176 10.6056 24.8182 9.894 23.0494 9.80589C21.145 9.71779 19.2677 10.3548 18.0207 11.5205C17.3362 12.1644 16.1976 13.8722 16.2789 16.19L16.2925 16.556L15.9265 16.5425C13.6087 16.4611 11.9008 17.5929 11.257 18.2842C10.0913 19.5312 9.44746 21.4085 9.54234 23.3129C9.62366 25.0818 10.3353 26.6812 11.4942 27.6978L11.833 27.996L11.4467 28.24C6.18083 31.5472 1.9044 36.969 0 42.7568C1.9044 48.5445 6.18083 53.9663 11.4603 57.2736L11.8466 57.5176L11.5077 57.8158C10.3556 58.8324 9.644 60.4318 9.55589 62.2006C9.46779 64.1051 10.1048 65.9823 11.2705 67.2294C11.9144 67.9139 13.6155 69.0524 15.94 68.9711L16.306 68.9576L16.2925 69.3235C16.2044 71.6413 17.3429 73.3492 18.0342 73.993C19.2812 75.1587 21.1653 75.8026 23.0629 75.7077C24.8318 75.6263 26.4312 74.9147 27.4478 73.7558L27.746 73.417L27.99 73.8033C31.2972 79.0759 36.719 83.3524 42.5068 85.2636C48.2945 83.3592 53.7163 79.0827 57.0236 73.8033L57.2676 73.417L57.5658 73.7558C58.5824 74.908 60.1818 75.6196 61.9506 75.7077C63.8551 75.8026 65.7323 75.1587 66.9794 73.993C67.6639 73.3492 68.8024 71.6413 68.7211 69.3235L68.7075 68.9576L69.0735 68.9711C71.3846 69.0524 73.0992 67.9206 73.743 67.2294C74.9087 65.9823 75.5525 64.1051 75.4577 62.2006C75.3763 60.4318 74.6647 58.8324 73.5058 57.8158L73.167 57.5176L73.5533 57.2736C78.8259 53.9663 83.1024 48.5445 85.0136 42.7568C83.1092 36.969 78.8327 31.5472 73.5533 28.24H73.5397ZM58.1012 13.3097C58.6163 12.3541 59.5244 11.6764 60.724 11.3511C62.2353 10.9377 64.0313 11.1681 65.2918 11.9339C66.5524 12.6998 67.3521 14.0823 67.386 15.5462V15.5936L67.3792 15.6343C67.1217 16.6983 66.4711 17.62 65.59 18.1622C65.0953 18.4672 64.6277 18.5688 64.2142 18.4672C63.8076 18.3655 63.462 18.0809 63.1841 17.62C63.0553 17.4099 62.8859 17.0779 62.8723 16.6712C62.8588 16.3256 62.9808 15.8512 63.34 15.6411C63.4823 15.5598 63.7805 15.4513 64.1736 15.6953C64.3701 15.8105 64.5531 15.8241 64.7158 15.736C64.9258 15.6208 65.0817 15.3429 65.0885 15.0718C65.0885 14.8888 65.0343 14.6381 64.7496 14.4618C64.1871 14.123 63.5433 14.062 62.9401 14.2924C62.2963 14.5364 61.8151 15.0718 61.6118 15.7427C61.2255 17.044 61.8558 18.6366 63.0892 19.4634C63.4823 19.7278 63.9093 19.8565 64.3972 19.8701H64.587L64.6819 20.0463C64.7429 20.1479 64.8039 20.2293 64.8784 20.2767L64.9801 20.3784C65.0275 20.4529 65.1021 20.5207 65.2105 20.5749L65.3799 20.6698V20.8596C65.4003 21.3475 65.529 21.7745 65.7933 22.1676C66.6134 23.401 68.2128 24.0313 69.514 23.645C70.1918 23.4417 70.7204 22.9605 70.9644 22.3167C71.1948 21.7135 71.1406 21.0696 70.7949 20.5071C70.6187 20.2157 70.368 20.1683 70.1918 20.1683C69.9139 20.1683 69.6428 20.3242 69.5276 20.541C69.4395 20.7037 69.453 20.8867 69.5683 21.0832C69.8055 21.4763 69.7038 21.7745 69.6225 21.9168C69.4124 22.276 68.9447 22.4048 68.5923 22.3844C68.1857 22.3709 67.8604 22.2014 67.6435 22.0727C67.1827 21.7948 66.8912 21.4492 66.7964 21.0425C66.6947 20.6223 66.7964 20.1615 67.1013 19.66C67.6435 18.7857 68.5652 18.1283 69.6292 17.8708L69.6699 17.8572H69.7174C71.1812 17.8911 72.5638 18.6976 73.3296 19.9514C74.0954 21.212 74.3259 23.0012 73.9125 24.5125C73.5872 25.7188 72.9094 26.627 71.9538 27.1353L71.798 27.2166L71.6421 27.1353C68.1857 25.3867 64.526 24.648 61.056 25.0004L60.9205 25.014L60.8121 24.9327C60.7375 24.8784 60.6765 24.8446 60.6223 24.8242L60.4597 24.77L60.4054 24.6074C60.3851 24.5531 60.3512 24.4921 60.297 24.4176L60.2157 24.3092L60.2292 24.1804C60.5816 20.7105 59.8429 17.0508 58.0944 13.6011L58.0131 13.4453L58.0944 13.2894L58.1012 13.3097ZM64.6277 34.1565C64.8039 34.9494 64.8445 35.8237 64.8784 36.6708C64.9326 38.0127 64.9936 39.3953 65.6104 40.4932C66.1119 41.3878 66.9184 42.0791 67.8807 42.445L68.7075 42.7636L67.8807 43.0821C66.9184 43.4481 66.1119 44.1461 65.6104 45.0339C64.9936 46.1318 64.9326 47.5144 64.8784 48.8563C64.8445 49.7034 64.8039 50.5777 64.6277 51.3706C63.9499 54.4136 62.3505 57.1923 59.87 59.6185C59.8023 59.6863 59.7548 59.7541 59.7209 59.8218L59.6667 59.9371L59.5515 59.9913C59.4837 60.0252 59.416 60.0726 59.3482 60.1404C56.9219 62.6141 54.1501 64.2203 51.1003 64.898C50.3074 65.0742 49.4331 65.1149 48.586 65.1487C47.2441 65.203 45.8615 65.264 44.7636 65.8807C43.8758 66.3822 43.1777 67.1887 42.8118 68.1511L42.4932 68.9779L42.1747 68.1511C41.8087 67.1887 41.1107 66.3822 40.2229 65.8807C39.1249 65.264 37.7424 65.203 36.4005 65.1487C35.5533 65.1149 34.6791 65.0742 33.8861 64.898C30.8432 64.2203 28.0645 62.6208 25.6383 60.1404C25.5705 60.0726 25.5027 60.0252 25.4349 59.9913L25.3197 59.9371L25.2655 59.8218C25.2316 59.7541 25.1842 59.6863 25.1164 59.6185C22.6427 57.1923 21.0365 54.4204 20.3588 51.3706C20.1826 50.5777 20.1419 49.7034 20.108 48.8563C20.0538 47.5144 19.9928 46.1251 19.3761 45.0339C18.8746 44.1461 18.0681 43.4481 17.1057 43.0821L16.2789 42.7636L17.1057 42.445C18.0681 42.0791 18.8746 41.381 19.3761 40.4932C19.9928 39.3953 20.0538 38.0127 20.108 36.6708C20.1419 35.8237 20.1826 34.9562 20.3588 34.1565C21.0365 31.1135 22.6359 28.3348 25.1164 25.9086C25.1842 25.8408 25.2316 25.773 25.2655 25.7053L25.3197 25.5901L25.4349 25.5358C25.5095 25.502 25.5773 25.4545 25.6383 25.3867C28.0645 22.9131 30.8364 21.3068 33.8861 20.6291C34.6791 20.4529 35.5533 20.4123 36.4005 20.3784C37.7424 20.3242 39.1249 20.2632 40.2229 19.6464C41.1174 19.1449 41.8087 18.3384 42.1747 17.3761L42.4932 16.5492L42.8118 17.3761C43.1777 18.3384 43.8758 19.1449 44.7636 19.6464C45.8615 20.2632 47.2441 20.3242 48.586 20.3784C49.4331 20.4123 50.3074 20.4529 51.1003 20.6291C54.1433 21.3068 56.9219 22.9063 59.3482 25.3867C59.416 25.4545 59.4837 25.502 59.5515 25.5358L59.6667 25.5901L59.7209 25.7053C59.7548 25.773 59.8023 25.8408 59.87 25.9086C62.3505 28.3348 63.9499 31.1067 64.6277 34.1565ZM42.3848 1.72066L42.5 1.68L42.6152 1.72066C50.7343 4.60776 59.0771 13.1606 58.9958 22.4725V23.1706L58.4468 22.7301C56.8813 21.4763 55.1802 20.5139 53.391 19.8836C52.0152 19.3957 50.6733 19.1788 49.3043 18.9755L48.6944 18.8874C48.0167 18.7925 47.427 18.7179 46.6206 18.5214C45.6379 18.5214 44.9127 18.2368 44.4722 17.681C43.9232 16.9898 43.8216 15.9461 44.1672 14.4754L44.2079 14.3805C44.8246 13.3504 45.8344 12.7947 46.6477 13.0319C46.9526 13.12 47.6642 13.4656 47.6371 14.7329V14.9363L47.4542 15.0311C47.2373 15.1463 47.0814 15.4174 47.0746 15.6953C47.0746 15.8783 47.1221 16.129 47.4135 16.3053C48.2403 16.8068 49.1552 16.7729 49.8533 16.2172C50.5852 15.6275 50.8495 14.6245 50.5175 13.6554C50.1312 12.5303 49.2162 11.7781 47.9353 11.5341C46.3156 11.2291 44.5061 11.8052 43.5437 12.9437C43.2319 13.3097 42.988 13.7164 42.8185 14.1637L42.5 14.9701L42.1882 14.1637C42.0188 13.7231 41.7681 13.3097 41.4631 12.9505C40.5007 11.812 38.6912 11.2291 37.0714 11.5409C35.7905 11.7848 34.8756 12.5371 34.4893 13.6621C34.1572 14.6245 34.4215 15.6343 35.1535 16.2239C35.8515 16.7864 36.7665 16.8203 37.5933 16.312C37.8847 16.1358 37.9389 15.8783 37.9322 15.7021C37.9254 15.4242 37.7695 15.1531 37.5526 15.0379L37.3764 14.943V14.7465C37.3425 13.4791 38.0541 13.1335 38.3591 13.0454C39.1792 12.8082 40.1822 13.3639 40.7989 14.3941L40.8396 14.489C41.1852 15.9528 41.0836 17.0033 40.5346 17.6946C40.0873 18.2503 39.3689 18.535 38.3862 18.535C37.5797 18.7315 36.9901 18.8128 36.3124 18.9009L35.7024 18.989C34.3334 19.1924 32.9916 19.4092 31.6158 19.8972C29.8266 20.5342 28.1255 21.4898 26.56 22.7436L26.0178 23.1841V22.4861C25.9297 13.1742 34.2792 4.62131 42.3983 1.73421L42.3848 1.72066ZM11.0943 24.526C10.6809 23.0147 10.9113 21.2187 11.6772 19.965C12.443 18.7044 13.8255 17.9047 15.2894 17.8708H15.3369L15.3775 17.8776C16.4416 18.1351 17.3633 18.7857 17.9054 19.6668C18.2104 20.1615 18.3121 20.6291 18.2104 21.0493C18.1088 21.4559 17.8241 21.8016 17.3633 22.0795C17.1532 22.2082 16.8211 22.3777 16.4144 22.3912C16.0688 22.4048 15.6012 22.2895 15.3843 21.9236C15.303 21.7813 15.1945 21.4831 15.4385 21.09C15.7096 20.6359 15.3504 20.3716 15.2352 20.297C14.9709 20.1344 14.4829 20.0666 14.2118 20.5139C13.873 21.0764 13.812 21.7203 14.0424 22.3234C14.2864 22.9605 14.8218 23.4485 15.4995 23.6518C16.8008 24.0381 18.3934 23.4078 19.2202 22.1743C19.4845 21.7813 19.6133 21.3543 19.6269 20.8663V20.6766L19.7963 20.5817C19.8979 20.5207 19.9793 20.4529 20.0267 20.3851L20.1284 20.2835C20.2029 20.236 20.2639 20.1615 20.3249 20.0531L20.4198 19.8836H20.6096C21.0975 19.8633 21.5245 19.7345 21.9176 19.4702C23.151 18.6502 23.7813 17.0508 23.395 15.7495C23.1917 15.0718 22.7105 14.5432 22.0667 14.2992C21.4635 14.0688 20.8196 14.123 20.2571 14.4686C19.9657 14.6448 19.9115 14.8956 19.9183 15.0786C19.9183 15.3564 20.0742 15.6275 20.291 15.7427C20.4537 15.8308 20.6367 15.8173 20.8332 15.7021C21.2263 15.4649 21.5245 15.5665 21.6668 15.6479C22.026 15.858 22.1412 16.3324 22.1344 16.678C22.1209 17.0846 21.9514 17.4099 21.8227 17.6268C21.5448 18.0944 21.1992 18.3791 20.7925 18.474C20.3723 18.5756 19.9115 18.474 19.41 18.169C18.5357 17.6268 17.8851 16.7051 17.6208 15.6411V15.6004L17.614 15.553C17.6479 14.0891 18.4544 12.7065 19.7082 11.9407C20.9687 11.1749 22.7579 10.9445 24.276 11.3579C25.4824 11.6832 26.3905 12.3609 26.8988 13.3165L26.9801 13.4724L26.8988 13.6282C25.1503 17.0846 24.4116 20.7443 24.764 24.2075L24.7775 24.3363L24.6962 24.4447C24.642 24.5193 24.6013 24.5803 24.5878 24.6345L24.5336 24.7971L24.3709 24.8513C24.3167 24.8717 24.2557 24.9056 24.1812 24.9598L24.0727 25.0411L23.944 25.0275C20.474 24.6751 16.8143 25.4138 13.3647 27.1624L13.2088 27.2437L13.0529 27.1624C12.0974 26.6473 11.4196 25.7392 11.0943 24.5396V24.526ZM1.46388 42.872L1.42322 42.7568L1.46388 42.6416C4.33743 34.5631 12.8225 26.2542 22.0802 26.2542C22.1277 26.2542 22.1683 26.2542 22.2158 26.2542H22.9138L22.4733 26.8032C21.2195 28.3687 20.2571 30.0698 19.6269 31.859C19.1389 33.2416 18.9152 34.5767 18.7187 35.9457L18.6306 36.5692C18.5357 37.2469 18.4612 37.8297 18.2646 38.6362C18.2646 39.6189 17.98 40.3441 17.4243 40.7846C16.733 41.3336 15.6825 41.4352 14.2186 41.0896L14.1237 41.0489C13.0936 40.4322 12.5379 39.4224 12.7751 38.6091C12.8632 38.3041 13.202 37.6061 14.4762 37.6196H14.6727L14.7676 37.8026C14.8828 38.0195 15.1539 38.1754 15.4318 38.1821C15.6147 38.1821 15.8655 38.1347 16.0417 37.8433C16.5432 37.0165 16.5093 36.1015 15.9536 35.4035C15.364 34.6715 14.3609 34.4072 13.3918 34.7393C12.2668 35.1256 11.5145 36.0405 11.2705 37.3214C10.9656 38.9412 11.5416 40.7507 12.6802 41.7131C13.0462 42.0248 13.4528 42.2688 13.9001 42.4382L14.7066 42.7568L13.9001 43.0685C13.4596 43.238 13.0529 43.4819 12.687 43.7937C11.5484 44.7628 10.9656 46.5656 11.2773 48.1853C11.5213 49.4662 12.2736 50.3812 13.3986 50.7675C14.3677 51.0995 15.3708 50.8352 15.9604 50.1033C16.5229 49.4052 16.5568 48.4971 16.0485 47.6635C15.8723 47.3721 15.608 47.3111 15.4385 47.3246C15.1607 47.3314 14.8896 47.4873 14.7744 47.7042L14.6795 47.8804H14.4829C13.2088 47.9007 12.87 47.2026 12.7819 46.8977C12.5447 46.0776 13.1004 45.0746 14.1305 44.4579L14.2254 44.4172C15.6893 44.0716 16.7398 44.1732 17.431 44.7222C17.9868 45.1627 18.2714 45.8879 18.2714 46.8706C18.4679 47.677 18.5425 48.2599 18.6374 48.9376L18.7255 49.5611C18.922 50.9301 19.1457 52.2652 19.6336 53.6478C20.2707 55.437 21.2263 57.1381 22.4801 58.7036L22.9206 59.2458H22.2225C22.1751 59.2458 22.1344 59.2458 22.087 59.2458C12.8225 59.2458 4.3442 50.9369 1.47066 42.8584L1.46388 42.872ZM26.892 72.2106C26.377 73.1662 25.4688 73.8439 24.2693 74.1692C23.7677 74.3048 23.2391 74.3726 22.7105 74.3726C21.6329 74.3726 20.5486 74.1015 19.7082 73.5864C18.4476 72.8206 17.6479 71.438 17.614 69.9741V69.9267L17.6208 69.886C17.8783 68.822 18.5289 67.9003 19.41 67.3581C19.9047 67.0531 20.3723 66.9515 20.7925 67.0531C21.1992 67.1548 21.5448 67.4394 21.8227 67.9003C21.9514 68.1104 22.1209 68.4425 22.1344 68.8491C22.148 69.188 22.0328 69.6692 21.6668 69.8792C21.5245 69.9606 21.2263 70.069 20.8332 69.825C20.3791 69.5472 20.1148 69.9131 20.0403 70.0351C19.8844 70.2994 19.8098 70.7874 20.2571 71.0585C20.8196 71.3973 21.4635 71.4583 22.0667 71.2279C22.7105 70.9839 23.1917 70.4485 23.395 69.7776C23.7813 68.4764 23.151 66.8837 21.9176 66.0569C21.5245 65.7926 21.0975 65.6638 20.6096 65.6503H20.4198L20.3249 65.4808C20.2639 65.3792 20.1961 65.2978 20.1284 65.2504L20.0267 65.1487C19.9793 65.0742 19.9047 65.0064 19.7963 64.9522L19.6269 64.8573V64.6676C19.6065 64.1796 19.4778 63.7526 19.2134 63.3596C18.3934 62.1261 16.794 61.4958 15.4927 61.8821C14.815 62.0854 14.2864 62.5666 14.0356 63.2105C13.8052 63.8136 13.8594 64.4575 14.2051 65.02C14.4762 65.4741 14.9709 65.3995 15.2284 65.2368C15.3436 65.1623 15.7096 64.898 15.4318 64.4439C15.1945 64.0508 15.2962 63.7526 15.3775 63.6103C15.5876 63.2511 16.0485 63.1359 16.4077 63.1427C16.8143 63.1562 17.1396 63.3257 17.3565 63.4544C17.8173 63.7323 18.1088 64.0779 18.2036 64.4846C18.3053 64.9048 18.2036 65.3656 17.8987 65.8671C17.3565 66.7414 16.4348 67.3988 15.3708 67.6563L15.3301 67.6699H15.2826C13.8188 67.636 12.4362 66.8295 11.6704 65.5689C10.9046 64.3084 10.6741 62.5192 11.0875 61.0079C11.4129 59.8015 12.0906 58.8934 13.0462 58.3851L13.202 58.3037L13.3579 58.3851C16.8143 60.1336 20.474 60.8791 23.9372 60.5199L24.0727 60.5063L24.1812 60.5877C24.2557 60.6419 24.3167 60.6825 24.3709 60.6961L24.5336 60.7503L24.5878 60.913C24.6081 60.9672 24.642 61.0282 24.6962 61.1027L24.7775 61.2112L24.764 61.3399C24.4116 64.8099 25.1503 68.4696 26.8988 71.9192L26.9801 72.0751L26.8988 72.2309L26.892 72.2106ZM42.6084 83.7997L42.4932 83.8403L42.378 83.7997C34.2589 80.9126 25.9161 72.3597 25.9974 63.0478V62.3498L26.5464 62.7903C28.1119 64.0441 29.813 65.0064 31.6022 65.6367C32.978 66.1247 34.3199 66.3415 35.6889 66.5449L36.3056 66.633C36.9833 66.7278 37.5662 66.8024 38.3727 66.9989C39.3554 66.9989 40.0805 67.2836 40.521 67.8393C41.07 68.5306 41.1717 69.5743 40.826 71.0449L40.7854 71.1398C40.1619 72.17 39.1588 72.7257 38.3456 72.4885C38.0406 72.4004 37.329 72.0547 37.3561 70.7874V70.5909L37.5391 70.496C37.7559 70.3808 37.9118 70.1097 37.9186 69.8318C37.9186 69.6488 37.8712 69.3981 37.5797 69.2219C36.7529 68.7203 35.838 68.7542 35.1399 69.31C34.408 69.8996 34.1437 70.9026 34.4758 71.8717C34.8621 72.9968 35.777 73.749 37.0579 73.993C38.6844 74.298 40.4872 73.7219 41.4495 72.5834C41.7613 72.2174 42.0053 71.8108 42.1747 71.3635L42.4864 70.557L42.805 71.3635C42.9812 71.804 43.2252 72.2174 43.5301 72.5834C44.4925 73.7219 46.302 74.3048 47.9218 73.993C49.2027 73.749 50.1176 72.9968 50.5039 71.8717C50.836 70.9094 50.5717 69.8996 49.8397 69.31C49.1417 68.7475 48.2335 68.7136 47.3999 69.2219C47.1085 69.3981 47.0543 69.6556 47.0611 69.8318C47.0679 70.1097 47.2237 70.3808 47.4406 70.496L47.6168 70.5909V70.7942C47.6439 72.0615 46.9391 72.4072 46.6341 72.4953C45.8141 72.7325 44.811 72.1767 44.1943 71.1466L44.1536 71.0517C43.808 69.5878 43.9097 68.5374 44.4586 67.8461C44.9059 67.2904 45.6243 67.0057 46.607 67.0057C47.4135 66.8092 48.0031 66.7278 48.6741 66.6397L49.2908 66.5516C50.6598 66.3551 52.0017 66.1314 53.3775 65.6435C55.1666 65.0064 56.8677 64.0508 58.4333 62.797L58.9754 62.3565V63.0546C59.0635 72.3665 50.714 80.9194 42.5949 83.8064L42.6084 83.7997ZM73.9057 60.9943C74.3191 62.5056 74.0887 64.3016 73.3228 65.5554C72.557 66.8159 71.1745 67.6157 69.7106 67.6495H69.6631L69.6225 67.6428C68.5584 67.3852 67.6367 66.7346 67.0946 65.8536C66.7896 65.3588 66.6879 64.8912 66.7896 64.471C66.8913 64.0644 67.1759 63.7188 67.6367 63.4409C67.8468 63.3121 68.1789 63.1427 68.5856 63.1291C68.9447 63.1156 69.3988 63.2308 69.6157 63.5968C69.697 63.7391 69.8055 64.0373 69.5615 64.4304C69.4463 64.6269 69.4259 64.8099 69.5208 64.9725C69.636 65.1826 69.9139 65.3385 70.185 65.3453C70.368 65.3453 70.6187 65.2911 70.7882 65.0064C71.127 64.4439 71.188 63.8069 70.9576 63.1969C70.7136 62.5531 70.1782 62.0719 69.5005 61.8686C68.206 61.4823 66.6066 62.1125 65.7798 63.346C65.5155 63.7391 65.3867 64.166 65.3731 64.654V64.8438L65.2037 64.9387C65.1021 64.9996 65.0207 65.0674 64.9733 65.1352L64.8716 65.2368C64.7971 65.2843 64.7361 65.3588 64.6751 65.4673L64.5802 65.6367H64.3904C63.9025 65.657 63.4755 65.7858 63.0824 66.0501C61.849 66.8702 61.2187 68.4696 61.605 69.7708C61.8083 70.4485 62.2895 70.9772 62.9333 71.2211C63.5365 71.4516 64.1804 71.3973 64.7429 71.0517C65.1969 70.7806 65.1224 70.2927 64.9597 70.0283C64.892 69.9131 64.6209 69.5472 64.1668 69.8183C63.7737 70.0555 63.4755 69.9538 63.3332 69.8725C62.974 69.6624 62.8588 69.188 62.8656 68.8423C62.8791 68.4357 63.0486 68.1104 63.1773 67.8935C63.4552 67.4327 63.8008 67.1413 64.2075 67.0464C64.6277 66.9447 65.0885 67.0464 65.59 67.3513C66.4643 67.8935 67.1217 68.8152 67.3792 69.8792V69.9199L67.386 69.9674C67.3521 71.4312 66.5456 72.8138 65.2918 73.5796C64.4514 74.0947 63.3671 74.3658 62.2895 74.3658C61.7609 74.3658 61.2255 74.298 60.7307 74.1625C59.5244 73.8372 58.6162 73.1594 58.108 72.2038L58.0266 72.048L58.108 71.8921C59.8565 68.4357 60.5952 64.776 60.2428 61.3128L60.2292 61.1841L60.3106 61.0756C60.3648 61.0011 60.4054 60.9401 60.419 60.8859L60.4732 60.7232L60.6359 60.669C60.6901 60.6487 60.7511 60.6148 60.8256 60.5606L60.9341 60.4792L61.0696 60.4928C64.5328 60.8452 68.1993 60.1065 71.6556 58.358L71.8115 58.2766L71.9674 58.358C72.923 58.873 73.6007 59.7812 73.926 60.9807L73.9057 60.9943ZM62.913 59.2661C62.8656 59.2661 62.8249 59.2661 62.7775 59.2661H62.0794L62.5199 58.7172C63.7737 57.1516 64.7361 55.4505 65.3664 53.6613C65.8543 52.2788 66.078 50.9437 66.2745 49.5747L66.3626 48.9647C66.4575 48.287 66.5388 47.6974 66.7286 46.8909C66.7286 45.9082 67.0132 45.183 67.569 44.7425C68.2602 44.1936 69.3107 44.0919 70.7746 44.4375L70.8695 44.4782C71.8996 45.0949 72.4554 46.1047 72.2181 46.918C72.13 47.223 71.7709 47.9142 70.5171 47.9075H70.3205L70.2256 47.7245C70.1104 47.5076 69.8393 47.3517 69.5615 47.345C69.3785 47.3382 69.1277 47.3924 68.9515 47.6838C68.45 48.5107 68.4839 49.4256 69.0396 50.1236C69.6292 50.8556 70.6323 51.1199 71.6014 50.7878C72.7264 50.4015 73.4787 49.4866 73.7227 48.2057C74.0277 46.5859 73.4516 44.7764 72.313 43.814C71.9471 43.5023 71.5404 43.2583 71.0999 43.0889L70.2934 42.7703L71.0999 42.4518C71.5404 42.2824 71.9471 42.0316 72.313 41.7266C73.4516 40.7575 74.0344 38.9548 73.7227 37.335C73.4787 36.0541 72.7264 35.1392 71.6014 34.7529C70.6391 34.4208 69.6292 34.6851 69.0396 35.417C68.4771 36.1151 68.4432 37.03 68.9515 37.8568C69.1277 38.1483 69.3717 38.2025 69.5615 38.1957C69.8393 38.1889 70.1104 38.033 70.2256 37.8162L70.3205 37.64H70.5171C70.5171 37.64 70.5645 37.64 70.5848 37.64C71.798 37.64 72.13 38.3312 72.2181 38.6294C72.4554 39.4495 71.8996 40.4525 70.8695 41.0692L70.7746 41.1099C69.3107 41.4555 68.2602 41.3539 67.569 40.8049C67.0132 40.3644 66.7286 39.6393 66.7286 38.6566C66.5321 37.8501 66.4507 37.2604 66.3626 36.5827L66.2745 35.9728C66.078 34.6038 65.8543 33.2687 65.3664 31.8861C64.7293 30.0969 63.7737 28.3958 62.5199 26.8303L62.0794 26.2881H62.7775C62.8249 26.2881 62.8656 26.2881 62.913 26.2881C72.1775 26.2881 80.6558 34.597 83.5293 42.6754L83.57 42.7907L83.5293 42.9059C80.6558 50.9843 72.1707 59.2932 62.913 59.2932V59.2661Z" fill="#C8E2F3"/>
</svg>
