<svg width="180" height="180" viewBox="0 0 180 180" fill="none" xmlns="http://www.w3.org/2000/svg">
<rect width="180" height="180" fill="#1A3C54"/>
<path fill-rule="evenodd" clip-rule="evenodd" d="M79.7051 57.4102H100.734V83.4399C107.616 86.03 112.513 92.6742 112.513 100.462V104.116H126.464V91.0845H138.288V104.718C146.318 106.775 152.238 113.866 152.238 122.298V152.18C152.238 156.699 148.46 160.362 143.799 160.362H98.6686V122.939C98.6686 118.073 94.7239 114.128 89.8578 114.128C84.9917 114.128 81.047 118.073 81.047 122.939V160.362H36.383C31.8643 160.362 28.2012 156.699 28.2012 152.18V122.298C28.2012 113.714 34.1508 106.519 42.1515 104.611V91.0845H53.9753V104.116H67.2042V100.462C67.2042 92.4045 72.4457 85.5711 79.7051 83.1854V57.4102ZM132.375 118.695C129.936 118.695 127.958 120.672 127.958 123.111V141.87H136.791V123.111C136.791 120.672 134.814 118.695 132.375 118.695ZM52.4799 123.111C52.4799 120.672 50.5025 118.695 48.0633 118.695C45.6242 118.695 43.6468 120.672 43.6468 123.111V141.87H52.4799V123.111Z" fill="white"/>
<path d="M74.6261 57.6171H74.624C74.624 62.758 78.9381 67.7652 84.2597 67.7652H96.1591C101.481 67.7652 105.795 62.758 105.795 57.6171H105.773C105.774 57.5535 105.775 57.4898 105.775 57.4259C105.775 48.8242 90.1997 36.4741 90.1997 36.4741C90.1997 36.4741 74.6249 48.8242 74.6249 57.4259C74.6249 57.4898 74.6253 57.5535 74.6261 57.6171Z" fill="#C2964D"/>
<path d="M120.885 87.1043H120.884C120.884 90.6394 123.85 94.0826 127.51 94.0826H135.692C139.352 94.0826 142.319 90.6394 142.319 87.1043H142.304C142.304 87.0605 142.305 87.0167 142.305 86.9728C142.305 81.0578 131.594 72.5652 131.594 72.5652C131.594 72.5652 120.884 81.0578 120.884 86.9728C120.884 87.0167 120.885 87.0605 120.885 87.1043Z" fill="#C2964D"/>
<path d="M36.4809 87.1043H36.4795C36.4795 90.6394 39.4461 94.0826 43.1055 94.0826H51.2882C54.9476 94.0826 57.9142 90.6394 57.9142 87.1043H57.8994C57.9 87.0605 57.9002 87.0167 57.9002 86.9728C57.9002 81.0578 47.1902 72.5652 47.1902 72.5652C47.1902 72.5652 36.4801 81.0578 36.4801 86.9728C36.4801 87.0167 36.4804 87.0605 36.4809 87.1043Z" fill="#C2964D"/>
<path d="M88.9853 27.3778V22.6533H82.8135V20.1302L88.9853 20.1302V14.4351H91.5084V20.1302L97.6812 20.1302V22.6533H91.5084V28.8345L95.3268 31.0391L94.0653 33.2241L91.5084 31.7479V40.5208H88.9853L88.9853 30.2912L85.1689 28.0878L86.4304 25.9027L88.9853 27.3778Z" fill="#C2964D"/>
<path d="M130.761 66.3103V63.0614H126.517V61.3264L130.761 61.3264V57.4102H132.496V61.3264L136.74 61.3264V63.0614H132.496V67.312L135.121 68.828L134.254 70.3305L132.496 69.3154V75.3481H130.761L130.761 68.3137L128.136 66.7985L129.004 65.2959L130.761 66.3103Z" fill="#C2964D"/>
<path d="M46.3554 66.3103V63.0614H42.1113V61.3264L46.3554 61.3264V57.4102H48.0904V61.3264L52.3352 61.3264V63.0614H48.0904V67.312L50.7162 68.828L49.8486 70.3305L48.0904 69.3154V75.3481H46.3554L46.3554 68.3137L43.731 66.7985L44.5985 65.2959L46.3554 66.3103Z" fill="#C2964D"/>
</svg>
