<svg width="110" height="115" viewBox="0 0 110 115" fill="none" xmlns="http://www.w3.org/2000/svg">
<path fill-rule="evenodd" clip-rule="evenodd" d="M8.03163 112.698V71.7464H7.18425V67.9905H9.60532C10.2106 66.052 11.4211 64.477 12.9948 63.2654H8.75795L8.39479 62.6596H4.27898C1.01054 63.75 0.526327 66.052 0.405273 69.081H1.25265V112.819H8.03163V112.698ZM50.5213 112.698H43.2581L39.3844 115H55.0003H70.6162L66.7424 112.698H59.4793H55.7266H55.0003H54.274H50.5213ZM55.0003 80.7121C57.7845 80.5909 59.1161 81.9236 59.4793 84.2256V91.7374C58.5108 90.7681 56.9371 90.2835 55.0003 90.2835C53.0634 90.2835 51.6108 90.647 50.5213 91.7374V84.2256C50.8845 81.9236 52.2161 80.5909 55.0003 80.7121ZM67.5898 44.8495C70.1319 47.1515 72.1898 49.6958 74.4899 51.7555C75.5793 52.6036 76.7899 53.4517 78.2425 53.9363V50.5439C78.0004 47.515 77.153 45.213 73.8846 44.1226H71.4635L71.1004 44.7283H67.5898V44.8495ZM31.8791 54.0575C33.3318 53.4517 34.5423 52.7247 35.6318 51.8766C37.9318 49.9381 39.9897 47.2726 42.5318 44.9707H39.1423L38.7792 44.3649H36.3581C33.0896 45.4553 32.1212 47.7573 32.0002 50.7862V54.0575H31.8791ZM101.969 112.698V71.7464H102.816V67.9905H100.395C99.79 66.052 98.5795 64.477 97.0058 63.2654H101.243L101.606 62.6596H105.722C108.99 63.75 109.474 66.052 109.595 69.081H108.748V112.819H101.969V112.698Z" fill="#C1D8E7"/>
<path fill-rule="evenodd" clip-rule="evenodd" d="M85.6271 58.6611V50.9071L85.1429 49.332H88.7745H92.5271L92.0429 50.9071V58.6611L93.7376 61.5689C94.9482 61.9324 96.0377 62.5381 97.0061 63.2651H97.1271L97.2482 63.3863L97.3692 63.5074H97.4903L97.6114 63.6286L97.7324 63.7497L97.8535 63.8709L97.9745 63.992L98.0956 64.1132L98.2166 64.2344L98.3377 64.3555L98.4587 64.4767L98.5798 64.5978V64.719L98.7008 64.8401V64.9613L98.8219 65.0824V65.2036L98.9429 65.3248L99.064 65.4459L99.185 65.5671V65.6882L99.3061 65.8094L99.4272 65.9306V66.0517L99.5482 66.1729L99.6693 66.294C99.6693 66.4152 99.7903 66.4152 99.7903 66.5363V66.6575V66.7787V66.8998V67.021V67.1421V67.2633V67.3844V67.5056V67.6268V67.7479H102.211V71.5038H101.364V112.455H8.03194V71.7461H7.18457V67.9902H9.60564V67.8691V67.7479V67.6268V67.5056V67.3844V67.2633V67.1421V67.021L10.0898 66.7787V66.6575C10.0898 66.5363 10.2109 66.5363 10.2109 66.4152L10.332 66.294L10.453 66.1729V66.0517L10.5741 65.9306L10.6951 65.8094V65.6882L10.8162 65.5671L10.9372 65.4459C10.9372 65.4459 10.9372 65.3248 11.0583 65.3248V65.2036L11.3004 64.9613V64.8401L11.4214 64.719V64.5978L11.5425 64.4767L11.7846 64.3555L11.9056 64.2344L12.0267 64.1132L12.1478 63.992L12.2688 63.8709L12.3899 63.7497L12.5109 63.6286L12.632 63.5074H12.753L12.8741 63.3863L12.9951 63.2651H13.1162C14.0846 62.5381 15.1741 61.9324 16.3846 61.5689L18.0794 58.6611V50.9071L17.5952 49.332H21.3478H25.1005L24.6162 50.9071V58.6611L25.5847 60.115L28.4899 58.9034V56.238L27.6426 55.9957V54.9052H26.6741C28.7321 54.9052 30.5478 54.5418 32.0005 54.0571C33.4531 53.4514 34.6637 52.7244 35.7531 51.8763C38.0532 49.9378 40.1111 47.2723 42.6532 44.9703C44.59 43.2741 46.89 41.6991 49.7953 40.851V32.1277C49.7953 31.5219 49.5532 31.0373 49.069 30.9161V29.8257H61.5375V30.9161C61.0533 31.0373 60.8112 31.5219 60.8112 32.1277V40.851C63.7164 41.6991 66.0165 43.2741 67.9533 44.9703C70.4954 47.2723 72.5533 49.8166 74.8533 51.8763C75.9428 52.7244 77.1534 53.5725 78.606 54.0571C80.0586 54.6629 81.7534 54.9052 83.9323 54.9052H82.9639V55.9957L82.1165 56.238V58.9034L85.0218 60.115L85.6271 58.6611ZM55.0006 80.7117C57.7848 80.5906 59.1164 81.9233 59.4796 84.2253V91.7371C58.5112 90.7678 56.9375 90.2832 55.0006 90.2832C53.0638 90.2832 51.6111 90.6466 50.5216 91.7371V84.2253C50.8848 81.9233 52.2164 80.5906 55.0006 80.7117Z" fill="white"/>
<path fill-rule="evenodd" clip-rule="evenodd" d="M89.5009 53.9381H88.1693V57.9363H89.5009V53.9381ZM18.6847 88.5891H19.1689C20.5005 88.7103 21.59 89.8007 21.59 91.2546V91.4969H19.1689H18.6847H16.2637V91.2546C16.2637 89.8007 17.3532 88.7103 18.6847 88.5891ZM90.9535 88.5891H91.4377C92.7693 88.7103 93.8588 89.8007 93.8588 91.2546V91.4969H91.4377H90.9535H88.5325V91.2546C88.5325 89.8007 89.622 88.7103 90.9535 88.5891ZM54.3954 66.6597H55.727V69.3251H54.3954V66.6597ZM55.727 37.5819H54.2744C54.2744 35.8857 54.2744 34.6741 54.2744 32.9779C54.2744 32.6144 54.6376 32.251 55.0007 32.251C55.3639 32.251 55.727 32.6144 55.727 32.9779C55.727 34.6741 55.727 35.8857 55.727 37.5819ZM20.6216 53.9381H21.9532V57.9363H20.6216V53.9381ZM18.9268 68.7193C20.3795 68.7193 21.59 69.9309 21.59 71.3848C21.59 72.8387 20.3795 74.0502 18.9268 74.0502C17.4742 74.0502 16.2637 72.8387 16.2637 71.3848C16.2637 69.8097 17.3532 68.7193 18.9268 68.7193ZM91.1956 68.7193C89.743 68.7193 88.5325 69.9309 88.5325 71.3848C88.5325 72.8387 89.743 74.0502 91.1956 74.0502C92.6483 74.0502 93.8588 72.8387 93.8588 71.3848C93.8588 69.8097 92.6483 68.7193 91.1956 68.7193ZM93.8588 104.461H91.4377V101.189H93.8588V104.461ZM90.9535 104.461H88.5325V101.189H90.9535V104.461ZM88.5325 100.705V98.0394H90.9535V100.705H88.5325ZM88.5325 97.6759V95.0105H90.9535V97.6759H88.5325ZM88.5325 94.5258V91.8604H90.9535V94.5258H88.5325ZM93.8588 91.9815V94.647H91.4377V91.9815H93.8588ZM93.8588 95.0105V97.6759H91.4377V95.0105H93.8588ZM93.8588 98.0394V100.705H91.4377V98.0394H93.8588ZM16.2637 104.461H18.6847V101.189H16.2637V104.461ZM19.0479 104.461H21.469V101.189H19.0479V104.461ZM21.59 100.705V98.0394H19.1689V100.705H21.59ZM21.59 97.6759V95.0105H19.1689V97.6759H21.59ZM21.59 94.5258V91.8604H19.1689V94.5258H21.59ZM16.2637 91.9815V94.647H18.6847V91.9815H16.2637ZM16.2637 95.0105V97.6759H18.6847V95.0105H16.2637ZM16.2637 98.0394V100.705H18.6847V98.0394H16.2637Z" fill="#1A3C54"/>
<path fill-rule="evenodd" clip-rule="evenodd" d="M8.03191 112.698H1.25293V115H8.03191H27.1583H36.2373H39.3847L43.2584 112.698H36.2373H27.1583H8.03191ZM101.969 114.879H108.748V112.577H101.969H82.8428H73.7638H66.7427L70.6164 114.879H73.7638H82.8428H101.969Z" fill="#507690"/>
<path d="M27.4006 54.9048V55.9952L28.2479 56.2375V58.903L21.7111 61.5685M48.827 29.7041V30.7945C49.3112 30.9157 49.5533 31.4003 49.5533 32.0061V40.7294M26.3111 67.9898V71.7457H27.1585V112.697M35.3901 77.8035V81.5594H36.2375V112.576M83.6903 67.9898V71.7457H82.843V112.697M74.6113 77.8035V81.5594H73.764V112.576M82.6009 54.9048V55.9952L81.7535 56.2375V58.903L88.2904 61.5685M16.2637 61.5685L17.9584 58.6607V50.9066L17.4742 49.3316M25.3427 60.1146L24.4953 58.6607V50.9066L24.9795 49.3316M93.8588 61.5685L92.1641 58.6607V50.9066L92.6483 49.3316M84.6588 60.1146L85.5061 58.6607V50.9066L85.0219 49.3316M61.1744 29.7041V30.7945C60.6902 30.9157 60.4481 31.4003 60.4481 32.0061V40.7294M26.5532 54.9048C30.7901 54.9048 33.4532 53.5721 35.5111 51.7547C40.5954 47.3931 44.348 40.0025 55.0007 40.0025C65.7745 40.0025 69.4061 47.3931 74.4903 51.7547C76.5482 53.5721 79.2114 54.9048 83.4482 54.9048" stroke="#1A3C54" stroke-width="0.387533" stroke-miterlimit="22.9256" stroke-linejoin="round"/>
<path d="M25.4629 67.99H33.2103C35.5103 61.811 40.9577 52.7242 54.9999 52.603" stroke="#1A3C54" stroke-width="0.706422" stroke-miterlimit="22.9256" stroke-linecap="round" stroke-linejoin="round"/>
<path d="M34.4232 77.802H39.1443C41.5654 72.1076 47.0127 68.8363 52.9444 68.594M26.5548 54.9032H36.9653C40.1127 48.8454 45.6812 43.8779 55.0023 43.8779M6.33887 67.9882H9.72836C11.0599 63.99 14.6915 61.2034 18.9284 61.2034C23.1653 61.2034 26.7969 63.99 28.1284 67.9882" stroke="#1A3C54" stroke-width="0.706422" stroke-miterlimit="22.9256" stroke-linejoin="round"/>
<path d="M84.6571 67.9882H76.9097C74.6096 61.8092 69.1623 52.7224 55.1201 52.6013M75.5781 77.802H70.9781C68.557 72.1076 63.1096 68.8363 57.178 68.594M83.4465 54.9032H73.036C69.8886 48.8454 64.3201 43.8779 54.999 43.8779M103.783 67.9882H100.394C99.0624 63.99 95.4308 61.2034 91.1939 61.2034C86.9571 61.2034 83.3255 63.99 81.9939 67.9882" stroke="#1A3C54" stroke-width="0.706422" stroke-miterlimit="22.9256" stroke-linejoin="round"/>
<path fill-rule="evenodd" clip-rule="evenodd" d="M55.4842 93.5539C57.7842 93.675 59.1158 94.8866 59.4789 97.0674V112.697H55.4842V93.5539ZM54.5157 93.5539C52.2157 93.675 50.8841 94.8866 50.521 97.0674V112.697H54.5157V93.5539ZM89.137 38.185C89.3791 38.3061 89.6212 38.5485 89.6212 38.7908C89.6212 39.0331 89.3791 39.3966 89.137 39.3966C89.3791 40.2447 89.258 41.4562 90.2264 42.4255C90.9527 43.1524 92.8896 43.3947 93.4949 45.0909C93.737 45.9391 94.1001 47.1506 92.2843 47.8776L93.3738 49.2103H88.7738H84.2948L85.3843 47.8776C83.5685 47.1506 83.9317 45.9391 84.1738 45.0909C84.779 43.3947 86.7159 43.0313 87.4422 42.4255C88.4106 41.5774 88.2896 40.2447 88.5317 39.3966C88.2896 39.2754 88.0475 39.0331 88.0475 38.7908C88.0475 38.5485 88.1685 38.3061 88.5317 38.185V36.2465L87.6843 35.5195V34.9137L88.5317 35.6407V33.2175H86.1106V32.7329H88.5317V31.6425H87.6843V31.1579H88.5317V30.0674H89.0159V31.1579H89.9843V31.6425H89.137V32.6118H91.558V33.0964H89.137V35.883L89.9843 36.6099V37.2157L89.137 36.4888V38.185ZM53.9105 47.3929V46.9083H54.7578V45.8179H55.242V46.9083H56.0894V47.3929H55.242V48.3622H57.6631V48.8468H55.242V51.6334L56.0894 52.3604V52.9662L55.242 52.2392V54.0566C55.4842 54.1777 55.7263 54.4201 55.7263 54.6624C55.7263 55.0258 55.4842 55.2682 55.242 55.3893C55.3631 56.3586 55.3631 58.1759 55.9684 59.024C56.4526 59.6298 58.0263 60.1145 58.2684 61.8107C58.3894 62.4164 58.1473 63.3857 56.9368 63.628L58.0263 64.355V64.8396H57.3H55.121H52.942H52.2157V64.355L53.3052 63.628C52.0947 63.3857 51.8526 62.4164 51.9736 61.8107C52.2157 60.1145 53.7894 59.6298 54.2736 59.024C54.8789 58.2971 54.8789 56.3586 54.9999 55.3893C54.7578 55.2682 54.5157 55.0258 54.5157 54.6624C54.5157 54.4201 54.6368 54.1777 54.9999 54.0566V51.8758L54.1526 51.1488V50.543L54.9999 51.27V48.8468H52.5789V48.3622H54.9999V47.3929H53.9105ZM21.4682 38.185C21.7103 38.3061 21.9524 38.5485 21.9524 38.7908C21.9524 39.0331 21.7103 39.3966 21.4682 39.3966C21.7103 40.2447 21.5892 41.4562 22.5577 42.4255C23.284 43.1524 25.2208 43.3947 25.8261 45.0909C26.0682 45.9391 26.4314 47.1506 24.6156 47.8776L25.7051 49.2103H21.2261H16.7471L17.8366 47.8776C16.0208 47.1506 16.384 45.9391 16.6261 45.0909C17.2313 43.3947 19.1682 43.0313 19.8945 42.4255C20.8629 41.5774 20.7419 40.2447 20.984 39.3966C20.7419 39.2754 20.4998 39.0331 20.4998 38.7908C20.4998 38.5485 20.6208 38.3061 20.984 38.185V36.2465L20.1366 35.5195V34.9137L20.984 35.6407V33.2175H18.5629V32.7329H20.984V31.6425H20.1366V31.1579H20.984V30.0674H21.4682V31.1579H22.3156V31.6425H21.4682V32.6118H23.8893V33.0964H21.4682V35.883L22.3156 36.6099V37.2157L21.4682 36.4888V38.185ZM55.3631 10.8034C55.7263 10.9246 55.8473 11.2881 55.8473 11.5304C55.8473 11.7727 55.7263 12.015 55.6052 12.1362C55.7263 13.5901 55.9684 15.4074 57.1789 16.8613C59.1158 19.0421 64.2 20.2537 63.1105 25.7058C62.8684 26.675 62.5052 27.6443 61.0526 28.3712L62.021 29.704H54.9999H47.9789L48.9473 28.3712C47.3736 27.6443 47.0104 26.675 46.8894 25.5846C46.042 20.1326 50.8841 19.1633 52.942 16.8613C54.1526 15.5286 54.3947 13.7112 54.5157 12.1362C54.3947 12.015 54.2736 11.7727 54.2736 11.5304C54.2736 11.1669 54.5157 10.9246 54.7578 10.8034V7.65335L53.6684 6.80525V6.07831L54.7578 6.92641V3.89748H51.7315V3.29169H54.7578V2.08012H53.6684V1.47433H54.7578V0.141602H55.3631V1.47433H56.4526V2.08012H55.3631V3.29169H58.3894V3.89748H55.3631V7.41104L56.4526 8.25914V9.10724L55.3631 8.25914V10.8034Z" fill="#C2964D"/>
</svg>
